<svg width="732" height="640" viewBox="0 0 732 640" fill="none" xmlns="http://www.w3.org/2000/svg">
<path d="M539.348 364.497H100.878V524.443H539.348V364.497Z" fill="#ACACAC" stroke="black" stroke-linecap="round" stroke-linejoin="round"/>
<path d="M151.289 374.178H110.04V393.951H151.289V374.178Z" fill="white" stroke="#263238" stroke-miterlimit="10"/>
<path d="M529.198 470.59H464.227V490.363H529.198V470.59Z" fill="white" stroke="#263238" stroke-miterlimit="10"/>
<path d="M529.198 398.874H489.09V418.647H529.198V398.874Z" fill="white" stroke="#263238" stroke-miterlimit="10"/>
<path d="M151.289 446.207H110.04V465.98H151.289V446.207Z" fill="white" stroke="#263238" stroke-miterlimit="10"/>
<path d="M143.438 422.384H110.04V442.157H143.438V422.384Z" fill="white" stroke="#263238" stroke-miterlimit="10"/>
<path d="M132.87 398.281H110.04V418.054H132.87V398.281Z" fill="white" stroke="#263238" stroke-miterlimit="10"/>
<path d="M162.029 398.281H139.2V418.054H162.029V398.281Z" fill="white" stroke="#263238" stroke-miterlimit="10"/>
<path d="M191.169 398.281H168.34V418.054H191.169V398.281Z" fill="white" stroke="#263238" stroke-miterlimit="10"/>
<path d="M220.309 398.281H197.48V418.054H220.309V398.281Z" fill="white" stroke="#263238" stroke-miterlimit="10"/>
<path d="M249.468 398.281H226.639V418.054H249.468V398.281Z" fill="white" stroke="#263238" stroke-miterlimit="10"/>
<path d="M278.608 398.281H255.779V418.054H278.608V398.281Z" fill="white" stroke="#263238" stroke-miterlimit="10"/>
<path d="M307.748 398.281H284.919V418.054H307.748V398.281Z" fill="white" stroke="#263238" stroke-miterlimit="10"/>
<path d="M336.907 398.281H314.078V418.054H336.907V398.281Z" fill="white" stroke="#263238" stroke-miterlimit="10"/>
<path d="M366.048 398.281H343.218V418.054H366.048V398.281Z" fill="white" stroke="#263238" stroke-miterlimit="10"/>
<path d="M395.188 398.281H372.358V418.054H395.188V398.281Z" fill="white" stroke="#263238" stroke-miterlimit="10"/>
<path d="M424.347 398.281H401.517V418.054H424.347V398.281Z" fill="white" stroke="#263238" stroke-miterlimit="10"/>
<path d="M453.487 398.281H430.658V418.054H453.487V398.281Z" fill="white" stroke="#263238" stroke-miterlimit="10"/>
<path d="M482.646 398.281H459.817V418.054H482.646V398.281Z" fill="white" stroke="#263238" stroke-miterlimit="10"/>
<path d="M132.87 494.989H110.04V514.762H132.87V494.989Z" fill="white" stroke="#263238" stroke-miterlimit="10"/>
<path d="M162.029 494.989H139.2V514.762H162.029V494.989Z" fill="white" stroke="#263238" stroke-miterlimit="10"/>
<path d="M191.169 494.989H168.34V514.762H191.169V494.989Z" fill="white" stroke="#263238" stroke-miterlimit="10"/>
<path d="M225.346 494.989H197.48V514.762H225.346V494.989Z" fill="white" stroke="#263238" stroke-miterlimit="10"/>
<path d="M371.085 494.989H231.657V514.762H371.085V494.989Z" fill="white" stroke="#263238" stroke-miterlimit="10"/>
<path d="M440.789 494.989H417.96V514.762H440.789V494.989Z" fill="white" stroke="#263238" stroke-miterlimit="10"/>
<path d="M469.929 494.989H447.1V514.762H469.929V494.989Z" fill="white" stroke="#263238" stroke-miterlimit="10"/>
<path d="M499.126 494.989H476.297V514.762H499.126V494.989Z" fill="white" stroke="#263238" stroke-miterlimit="10"/>
<path d="M412.238 494.989H376.787V514.762H412.238V494.989Z" fill="white" stroke="#263238" stroke-miterlimit="10"/>
<path d="M529.198 494.989H506.369V514.762H529.198V494.989Z" fill="white" stroke="#263238" stroke-miterlimit="10"/>
<path d="M172.75 422.384H149.92V442.157H172.75V422.384Z" fill="white" stroke="#263238" stroke-miterlimit="10"/>
<path d="M201.89 422.384H179.06V442.157H201.89V422.384Z" fill="white" stroke="#263238" stroke-miterlimit="10"/>
<path d="M231.049 422.384H208.22V442.157H231.049V422.384Z" fill="white" stroke="#263238" stroke-miterlimit="10"/>
<path d="M260.189 422.384H237.36V442.157H260.189V422.384Z" fill="white" stroke="#263238" stroke-miterlimit="10"/>
<path d="M289.348 422.384H266.519V442.157H289.348V422.384Z" fill="white" stroke="#263238" stroke-miterlimit="10"/>
<path d="M318.488 422.384H295.659V442.157H318.488V422.384Z" fill="white" stroke="#263238" stroke-miterlimit="10"/>
<path d="M347.628 422.384H324.799V442.157H347.628V422.384Z" fill="white" stroke="#263238" stroke-miterlimit="10"/>
<path d="M376.787 422.384H353.958V442.157H376.787V422.384Z" fill="white" stroke="#263238" stroke-miterlimit="10"/>
<path d="M405.927 422.384H383.098V442.157H405.927V422.384Z" fill="white" stroke="#263238" stroke-miterlimit="10"/>
<path d="M435.067 422.384H412.238V442.157H435.067V422.384Z" fill="white" stroke="#263238" stroke-miterlimit="10"/>
<path d="M464.227 422.384H441.397V442.157H464.227V422.384Z" fill="white" stroke="#263238" stroke-miterlimit="10"/>
<path d="M493.367 422.384H470.538V442.157H493.367V422.384Z" fill="white" stroke="#263238" stroke-miterlimit="10"/>
<path d="M529.198 422.384V466.276H506.369V442.173H499.678V422.384H529.198Z" fill="white" stroke="#263238" stroke-miterlimit="10"/>
<path d="M179.441 446.487H156.611V466.26H179.441V446.487Z" fill="white" stroke="#263238" stroke-miterlimit="10"/>
<path d="M208.581 446.487H185.751V466.26H208.581V446.487Z" fill="white" stroke="#263238" stroke-miterlimit="10"/>
<path d="M237.721 446.487H214.892V466.26H237.721V446.487Z" fill="white" stroke="#263238" stroke-miterlimit="10"/>
<path d="M266.88 446.487H244.051V466.26H266.88V446.487Z" fill="white" stroke="#263238" stroke-miterlimit="10"/>
<path d="M296.02 446.487H273.191V466.26H296.02V446.487Z" fill="white" stroke="#263238" stroke-miterlimit="10"/>
<path d="M325.179 446.487H302.35V466.26H325.179V446.487Z" fill="white" stroke="#263238" stroke-miterlimit="10"/>
<path d="M354.319 446.487H331.49V466.26H354.319V446.487Z" fill="white" stroke="#263238" stroke-miterlimit="10"/>
<path d="M383.459 446.487H360.63V466.26H383.459V446.487Z" fill="white" stroke="#263238" stroke-miterlimit="10"/>
<path d="M412.618 446.487H389.789V466.26H412.618V446.487Z" fill="white" stroke="#263238" stroke-miterlimit="10"/>
<path d="M441.759 446.487H418.929V466.26H441.759V446.487Z" fill="white" stroke="#263238" stroke-miterlimit="10"/>
<path d="M470.899 446.487H448.069V466.26H470.899V446.487Z" fill="white" stroke="#263238" stroke-miterlimit="10"/>
<path d="M500.058 446.487H477.228V466.26H500.058V446.487Z" fill="white" stroke="#263238" stroke-miterlimit="10"/>
<path d="M167.047 470.59H144.218V490.363H167.047V470.59Z" fill="white" stroke="#263238" stroke-miterlimit="10"/>
<path d="M196.187 470.59H173.358V490.363H196.187V470.59Z" fill="white" stroke="#263238" stroke-miterlimit="10"/>
<path d="M225.346 470.59H202.517V490.363H225.346V470.59Z" fill="white" stroke="#263238" stroke-miterlimit="10"/>
<path d="M254.486 470.59H231.657V490.363H254.486V470.59Z" fill="white" stroke="#263238" stroke-miterlimit="10"/>
<path d="M283.627 470.59H260.797V490.363H283.627V470.59Z" fill="white" stroke="#263238" stroke-miterlimit="10"/>
<path d="M312.786 470.59H289.956V490.363H312.786V470.59Z" fill="white" stroke="#263238" stroke-miterlimit="10"/>
<path d="M341.926 470.59H319.096V490.363H341.926V470.59Z" fill="white" stroke="#263238" stroke-miterlimit="10"/>
<path d="M371.085 470.59H348.256V490.363H371.085V470.59Z" fill="white" stroke="#263238" stroke-miterlimit="10"/>
<path d="M400.225 470.59H377.396V490.363H400.225V470.59Z" fill="white" stroke="#263238" stroke-miterlimit="10"/>
<path d="M429.365 470.59H406.536V490.363H429.365V470.59Z" fill="white" stroke="#263238" stroke-miterlimit="10"/>
<path d="M458.524 470.59H435.695V490.363H458.524V470.59Z" fill="white" stroke="#263238" stroke-miterlimit="10"/>
<path d="M179.441 375.363H156.611V395.136H179.441V375.363Z" fill="white" stroke="#263238" stroke-miterlimit="10"/>
<path d="M208.581 375.363H185.751V395.136H208.581V375.363Z" fill="white" stroke="#263238" stroke-miterlimit="10"/>
<path d="M237.721 375.363H214.892V395.136H237.721V375.363Z" fill="white" stroke="#263238" stroke-miterlimit="10"/>
<path d="M266.88 375.363H244.051V395.136H266.88V375.363Z" fill="white" stroke="#263238" stroke-miterlimit="10"/>
<path d="M296.02 375.363H273.191V395.136H296.02V375.363Z" fill="white" stroke="#263238" stroke-miterlimit="10"/>
<path d="M325.179 375.363H302.35V395.136H325.179V375.363Z" fill="white" stroke="#263238" stroke-miterlimit="10"/>
<path d="M354.319 375.363H331.49V395.136H354.319V375.363Z" fill="white" stroke="#263238" stroke-miterlimit="10"/>
<path d="M383.459 375.363H360.63V395.136H383.459V375.363Z" fill="white" stroke="#263238" stroke-miterlimit="10"/>
<path d="M412.618 375.363H389.789V395.136H412.618V375.363Z" fill="white" stroke="#263238" stroke-miterlimit="10"/>
<path d="M441.759 375.363H418.929V395.136H441.759V375.363Z" fill="white" stroke="#263238" stroke-miterlimit="10"/>
<path d="M470.899 375.363H448.069V395.136H470.899V375.363Z" fill="white" stroke="#263238" stroke-miterlimit="10"/>
<path d="M500.058 375.363H477.228V395.136H500.058V375.363Z" fill="white" stroke="#263238" stroke-miterlimit="10"/>
<path d="M529.198 375.363H506.369V395.136H529.198V375.363Z" fill="white" stroke="#263238" stroke-miterlimit="10"/>
<path d="M137.698 470.59H110.04V490.363H137.698V470.59Z" fill="white" stroke="#263238" stroke-miterlimit="10"/>
<path d="M100.878 365.518L110.04 362.884H533.399L539.424 365.485L100.878 365.518Z" fill="#263238"/>
<path opacity="0.2" d="M413.854 639.837L404.939 593.327C402.962 586.396 398.78 580.09 392.869 575.118C375.134 560.301 351.696 545.088 350.689 525.727C349.149 496.092 343.808 496.932 344.378 489.605C346.697 486.115 348.731 482.477 350.48 478.739C351.582 475.858 352.437 472.928 353.065 469.948C353.806 466.918 357.114 464.877 360.668 465.255C363.082 465.535 365.325 466.441 367.112 467.873C370.248 470.771 371.978 474.607 371.94 478.575C371.883 482.509 371.256 486.411 370.039 490.198C373.024 496.751 374.944 503.616 375.742 510.629C377.776 505.196 379.315 499.714 381.349 494.297C381.768 494.1 381.616 493.672 382.015 493.474C379.144 488.14 381.578 488.436 375.894 476.698C366.39 456.941 355.669 437.893 348.046 413.065C347.419 410.76 347.495 408.357 348.218 406.085C350.974 398.989 359.414 400.619 363.101 404.751C364.071 405.838 364.831 407.056 365.382 408.34C370.381 418.91 376.483 429.085 383.573 438.716L404.274 466.046C404.274 466.046 411.478 460.925 412.58 458.637C413.664 456.332 414.196 437.777 414.196 437.777C414.196 437.777 412.561 441.251 408.931 441.07C406.308 440.906 400.985 442.223 397.203 438.535C394.18 435.456 394.028 430.978 396.86 427.768L406.232 416.803C410.413 413.938 416.097 413.345 420.944 415.272C426.989 417.906 432.577 421.297 437.501 425.314C442.443 425.199 447.366 426.022 451.909 427.718C458.543 430.484 465.5 438.42 465.5 438.42C465.5 438.42 473.237 438.831 476.715 441.021C477.59 441.564 489.394 457.485 485.136 469.882C482.608 477.274 481.049 487.992 479.909 490.889L474.111 563.478L485.801 611.223L460.805 623.291C451.681 627.703 442.12 631.407 432.235 634.371L413.854 639.837Z" fill="black"/>
<path d="M484.832 555.016L485.06 482.23C485.972 479.299 486.714 468.499 488.653 460.975C491.96 448.364 478.958 433.151 478.046 432.657C474.396 430.698 466.641 430.731 466.641 430.731C466.641 430.731 459.037 423.207 452.251 420.853C447.594 419.387 442.633 418.828 437.691 419.206C432.463 415.469 426.647 412.407 420.393 410.135C415.413 408.505 409.786 409.41 405.832 412.506L397.336 424.03C394.75 427.405 395.245 431.867 398.495 434.765C402.563 438.238 407.771 436.609 410.394 436.609C414.025 436.609 415.394 433.052 415.394 433.052C415.394 433.052 416.287 451.591 415.394 453.945C414.462 456.299 407.657 461.815 407.657 461.815L384.847 435.752C377.015 426.549 370.153 416.753 364.375 406.48C363.709 405.229 362.854 404.076 361.809 403.039C357.817 399.121 349.282 397.985 347.058 405.212C346.507 407.534 346.64 409.921 347.419 412.193C356.923 436.526 369.051 454.916 380.095 474.08C386.653 485.456 384.22 485.325 387.489 490.461C387.109 490.692 387.299 491.12 386.881 491.334C385.284 496.866 384.163 502.414 382.547 507.946C381.216 500.998 378.764 494.248 375.267 487.893C376.198 484.041 376.521 480.106 376.274 476.171C375.989 472.203 373.955 468.482 370.572 465.782C368.69 464.465 366.371 463.675 363.938 463.543C360.326 463.346 357.151 465.585 356.638 468.68C356.258 471.693 355.631 474.656 354.737 477.587C353.274 481.423 351.525 485.16 349.491 488.782C349.491 496.125 354.737 494.923 358.558 524.459C361.523 547.508 395.739 562.671 414.367 579.283L434.212 633.383C457.441 625.25 479.7 615.158 500.666 603.271L484.832 555.016Z" fill="white"/>
<mask id="mask0_29_426" style="mask-type:luminance" maskUnits="userSpaceOnUse" x="346" y="399" width="155" height="235">
<path d="M484.832 555.016L485.06 482.23C485.972 479.299 486.714 468.499 488.653 460.975C491.96 448.364 478.958 433.151 478.046 432.657C474.396 430.698 466.641 430.731 466.641 430.731C466.641 430.731 459.037 423.207 452.251 420.853C447.594 419.387 442.633 418.828 437.691 419.206C432.463 415.469 426.647 412.407 420.393 410.135C415.413 408.505 409.786 409.41 405.832 412.506L397.336 424.03C394.75 427.405 395.245 431.867 398.495 434.765C402.563 438.238 407.771 436.609 410.394 436.609C414.025 436.609 415.394 433.052 415.394 433.052C415.394 433.052 416.287 451.591 415.394 453.945C414.462 456.299 407.657 461.815 407.657 461.815L384.847 435.752C377.015 426.549 370.153 416.753 364.375 406.48C363.709 405.229 362.854 404.076 361.809 403.039C357.817 399.121 349.282 397.985 347.058 405.212C346.507 407.534 346.64 409.921 347.419 412.193C356.923 436.526 369.051 454.916 380.095 474.08C386.653 485.456 384.22 485.325 387.489 490.461C387.109 490.692 387.299 491.12 386.881 491.334C385.284 496.866 384.163 502.414 382.547 507.946C381.216 500.998 378.764 494.248 375.267 487.893C376.198 484.041 376.521 480.106 376.274 476.171C375.989 472.203 373.955 468.482 370.572 465.782C368.69 464.465 366.371 463.675 363.938 463.543C360.326 463.346 357.151 465.585 356.638 468.68C356.258 471.693 355.631 474.656 354.737 477.587C353.274 481.423 351.525 485.16 349.491 488.782C349.491 496.125 354.737 494.923 358.558 524.459C361.523 547.508 395.739 562.671 414.367 579.283L434.212 633.383C457.441 625.25 479.7 615.158 500.666 603.271L484.832 555.016Z" fill="white"/>
</mask>
<g mask="url(#mask0_29_426)">
<path d="M475.1 456.118C475.917 453.912 477.419 451.936 479.452 450.422C481.6 448.923 484.699 449.006 486.733 450.636C485.307 446.865 483.805 443.128 482.209 439.391C481.258 436.46 479.433 433.81 476.924 431.686C474.225 429.776 469.777 429.381 467.42 431.686C469.074 440.296 469.245 449.055 467.952 457.715C467.249 462.391 466.337 467.758 469.967 471.265C470.975 471.973 472.723 470.705 472.077 469.734C471.773 469.273 470.709 469.24 470.176 469.273C471.393 464.778 473.047 460.382 475.1 456.118Z" fill="#BEBEBE"/>
<path d="M475.1 456.118C475.917 453.912 477.419 451.936 479.452 450.422C481.6 448.923 484.699 449.006 486.733 450.636C485.307 446.865 483.805 443.128 482.209 439.391C481.258 436.46 479.433 433.81 476.924 431.686C474.225 429.776 469.777 429.381 467.42 431.686C469.074 440.296 469.245 449.055 467.952 457.715C467.249 462.391 466.337 467.758 469.967 471.265C470.975 471.973 472.723 470.705 472.077 469.734C471.773 469.273 470.709 469.24 470.176 469.273C471.393 464.778 473.047 460.382 475.1 456.118Z" fill="#BEBEBE"/>
<path opacity="0.5" d="M475.1 456.118C475.917 453.912 477.419 451.936 479.452 450.422C481.6 448.923 484.699 449.006 486.733 450.636C485.307 446.865 483.805 443.128 482.209 439.391C481.258 436.46 479.433 433.81 476.924 431.686C474.225 429.776 469.777 429.381 467.42 431.686C469.074 440.296 469.245 449.055 467.952 457.715C467.249 462.391 466.337 467.758 469.967 471.265C470.975 471.973 472.723 470.705 472.077 469.734C471.773 469.273 470.709 469.24 470.176 469.273C471.393 464.778 473.047 460.382 475.1 456.118Z" fill="white"/>
<path d="M444.762 448.314C444.724 451.492 445.066 454.653 445.788 457.764C446.53 460.909 448.735 463.642 451.871 465.354C449.97 459.23 450.997 452.727 452.023 446.454L453.924 434.929C454.019 433.579 454.475 432.279 455.274 431.11C456.11 429.941 457.783 429.414 459.284 429.858C457.384 430.813 454.969 429.529 453.829 427.916C452.974 426.171 452.004 424.491 450.921 422.845C448.374 420.013 442.937 419.387 439.173 420.145C440.295 429.611 444.325 438.601 444.762 448.314Z" fill="#BEBEBE"/>
<path d="M444.762 448.314C444.724 451.492 445.066 454.653 445.788 457.764C446.53 460.909 448.735 463.642 451.871 465.354C449.97 459.23 450.997 452.727 452.023 446.454L453.924 434.929C454.019 433.579 454.475 432.279 455.274 431.11C456.11 429.941 457.783 429.414 459.284 429.858C457.384 430.813 454.969 429.529 453.829 427.916C452.974 426.171 452.004 424.491 450.921 422.845C448.374 420.013 442.937 419.387 439.173 420.145C440.295 429.611 444.325 438.601 444.762 448.314Z" fill="#BEBEBE"/>
<g opacity="0.5">
<path d="M444.762 448.314C444.724 451.492 445.066 454.653 445.788 457.764C446.53 460.909 448.735 463.642 451.871 465.354C449.97 459.23 450.997 452.727 452.023 446.454L453.924 434.929C454.019 433.579 454.475 432.279 455.274 431.11C456.11 429.941 457.783 429.414 459.284 429.858C457.384 430.813 454.969 429.529 453.829 427.916C452.974 426.171 452.004 424.491 450.921 422.845C448.374 420.013 442.937 419.387 439.173 420.145C440.295 429.611 444.325 438.601 444.762 448.314Z" fill="white"/>
</g>
<path d="M413.74 422.927C412.637 422.005 411.915 420.787 411.725 419.47C411.516 418.153 410.718 416.967 409.501 416.177C403.665 419.387 406.859 428.788 400.947 431.9C399.807 432.509 398.343 432.855 397.716 433.876C397.203 434.863 397.469 436.016 398.343 436.773C399.236 437.498 400.358 437.959 401.574 438.09C406.403 438.667 411.193 436.872 414.006 433.415C416.325 430.649 417.922 426.203 416.781 422.927C415.85 423.421 414.671 423.421 413.74 422.927Z" fill="#BEBEBE"/>
<path d="M353.046 484.485C353.046 484.831 352.875 485.275 353.198 485.506C353.521 485.736 354.357 485.308 354.737 484.847C357.323 481.785 361.885 480.517 366.048 481.67C367.587 481.67 368.119 479.612 367.112 478.608C365.952 477.702 364.413 477.274 362.854 477.422C361.314 477.57 359.756 477.356 358.368 476.78C356.771 475.891 356.011 474.228 356.467 472.631C355.498 476.599 354.3 480.534 353.046 484.485Z" fill="#BEBEBE"/>
<g opacity="0.5">
<path d="M413.74 422.927C412.637 422.005 411.915 420.787 411.725 419.47C411.516 418.153 410.718 416.967 409.501 416.177C403.665 419.387 406.859 428.788 400.947 431.9C399.807 432.509 398.343 432.855 397.716 433.876C397.203 434.863 397.469 436.016 398.343 436.773C399.236 437.498 400.358 437.959 401.574 438.09C406.403 438.667 411.193 436.872 414.006 433.415C416.325 430.649 417.922 426.203 416.781 422.927C415.85 423.421 414.671 423.421 413.74 422.927Z" fill="white"/>
<path d="M353.046 484.485C353.046 484.831 352.875 485.275 353.198 485.506C353.521 485.736 354.357 485.308 354.737 484.847C357.323 481.785 361.885 480.517 366.048 481.67C367.587 481.67 368.119 479.612 367.112 478.608C365.952 477.702 364.413 477.274 362.854 477.422C361.314 477.57 359.756 477.356 358.368 476.78C356.771 475.891 356.011 474.228 356.467 472.631C355.498 476.599 354.3 480.534 353.046 484.485Z" fill="white"/>
</g>
<path d="M430.448 421.676C427.122 421.297 423.605 421.215 420.697 419.75C417.085 417.906 414.595 413.987 410.394 413.823C406.593 413.675 403.875 416.638 401.765 419.305C401.803 415.173 404.787 411.485 409.254 410.036C413.683 408.703 418.549 408.867 422.845 410.497C427.084 412.143 431.057 414.284 434.63 416.869C436.17 417.758 437.52 418.877 438.622 420.161C443.317 426.632 433.376 422.022 430.448 421.676Z" fill="#BEBEBE"/>
<path opacity="0.5" d="M430.448 421.676C427.122 421.297 423.605 421.215 420.697 419.75C417.085 417.906 414.595 413.987 410.394 413.823C406.593 413.675 403.875 416.638 401.765 419.305C401.803 415.173 404.787 411.485 409.254 410.036C413.683 408.703 418.549 408.867 422.845 410.497C427.084 412.143 431.057 414.284 434.63 416.869C436.17 417.758 437.52 418.877 438.622 420.161C443.317 426.632 433.376 422.022 430.448 421.676Z" fill="white"/>
<path d="M370.99 515.173C371.218 514.811 371.427 514.449 371.598 514.07C371.18 514.317 370.952 514.745 370.99 515.173Z" fill="#BEBEBE"/>
<path d="M376.635 489.671C376.255 485.621 376.92 481.538 376.73 477.471C376.54 473.405 375.305 469.124 371.883 466.326C366.979 462.325 353.54 464.366 358.045 471.973C359.414 474.113 362.379 475.084 365.021 474.228C367.549 473.191 368.652 470.573 367.454 468.384C367.454 468.351 367.416 468.318 367.397 468.285C372.815 475.71 372.339 485.259 366.238 492.256C373.233 497.788 375.4 506.563 371.598 514.07C372.548 513.511 373.784 513.511 374.734 514.07C375.894 515.108 376.73 516.392 377.149 517.791C377.814 519.125 379.049 520.508 380.722 520.409C383.003 515.552 382.262 510.037 380.722 504.966C379.182 499.895 377.11 494.956 376.635 489.671Z" fill="#BEBEBE"/>
<path d="M425.81 413.329C423.187 411.567 420.089 410.431 416.819 410.036L425.81 413.329Z" fill="#BEBEBE"/>
<path d="M448.164 464.844C447.442 462.045 445.94 459.444 445.047 456.612C442.975 450.175 444.287 443.293 443.336 436.658C442.044 427.998 436.987 420.079 429.213 414.514L425.81 413.263C429.099 415.42 431.513 418.449 432.653 421.89C435.296 429.76 436.113 437.959 437.292 446.092C439.078 458.653 441.721 471.133 445.18 483.431C447.442 477.373 449.742 471.018 448.164 464.844Z" fill="#BEBEBE"/>
<path d="M411.972 435.571C414.253 433.843 415.679 431.422 415.983 428.805C416.249 426.483 416.173 424.162 415.774 421.857C415.375 422.96 414.082 423.619 412.77 423.421C411.212 422.894 409.919 421.89 409.178 420.589L408.494 422.647L408.208 421.528L407.296 422.532C408.646 425.825 409.957 429.661 407.866 432.674C406.745 434.073 405.281 435.242 403.589 436.098C406.232 437.498 409.596 437.284 411.972 435.571Z" fill="#BEBEBE"/>
<path d="M415.66 421.034L415.774 421.857C415.831 421.577 415.793 421.297 415.66 421.034Z" fill="#BEBEBE"/>
<path d="M405.718 454.356C399.065 443.013 392.412 431.669 385.056 420.639C380.95 414.103 376.084 407.929 370.534 402.249C367.986 399.796 360.725 394.099 356.714 397.853C354.034 400.355 357.551 404.899 354.262 407.616C355.023 407.616 358.729 407.303 359.128 407.731C367.53 416.77 372.035 428.047 371.883 439.654C374.563 437.827 378.251 440.362 380.342 442.7C393.249 457.04 405.3 471.923 416.458 487.317C414.291 480.517 414.234 473.29 411.915 466.54C410.28 462.325 408.208 458.242 405.718 454.356Z" fill="#BEBEBE"/>
<path d="M483.159 481.999C486.562 474.739 488.577 467.034 489.109 459.213C489.47 451.986 487.398 444.807 483.14 438.584C482.038 437.053 477.438 430.731 474.985 431.241C470.518 432.163 476.373 438.881 477.4 440.56C481.201 446.898 485.212 453.599 485.003 460.761C484.813 466.276 482.133 471.462 479.985 476.648C478.369 480.254 477.457 484.073 477.305 487.942C476.981 488.371 476.677 488.815 476.316 489.21C473.484 492.717 469.207 495.154 464.379 496.043C466.28 491.103 468.047 486.164 469.891 481.225C470.556 479.464 470.785 477.06 469.606 475.842C470.005 475.183 470.195 474.442 470.195 473.701C469.929 472.368 469.378 471.084 468.58 469.915C466.032 465.173 466.888 459.658 467.515 454.455C468.275 448.034 468.561 441.432 466.394 435.259C464.227 429.085 459.189 423.355 452.118 421.314L454.019 422.96L451.624 421.445L456.072 429.48L454.437 431.505C456.889 430.385 460.026 431.999 461.147 434.188C462.022 436.477 462.212 438.913 461.698 441.284C460.273 454.62 461.014 468.071 463.942 481.225C463.846 484.304 462.915 487.3 461.204 490C459.322 492.98 455.597 494.726 451.7 494.462C452.555 491.169 451.13 487.745 448.031 485.687C444.23 490.297 446.473 497.458 447.043 502.71C447.936 510.662 449.4 518.565 451.472 526.352C452.08 519.602 453.696 512.967 456.319 506.596C458.372 513.099 460.444 519.602 462.516 526.105C462.421 524.278 462.82 522.45 463.694 520.788C464.645 519.092 466.831 518.219 468.941 518.68C470.461 519.405 471.602 520.623 472.077 522.072C477.457 533.333 478.787 545.747 475.879 557.683C478.426 558.918 481.81 557.436 483.235 555.23C484.414 552.908 484.87 550.356 484.585 547.821C484.072 525.908 483.596 503.962 483.159 481.999Z" fill="#BEBEBE"/>
<path d="M418.72 488.963C417.504 490.807 422.522 498.15 423.301 499.895C427.483 508.753 431.665 517.61 435.866 526.484C434.478 514.795 431.19 503.336 426.134 492.437C425.278 490.61 421.134 485.292 418.72 488.963Z" fill="#BEBEBE"/>
<path d="M425.221 442.009C424.499 442.947 423.491 444.1 422.256 443.77C421.02 443.441 420.887 442.124 420.906 441.087C421.039 434.929 421.153 428.772 421.267 422.598C415.565 426.171 416.249 430.83 415.85 436.164C415.622 439.243 416.648 453.945 414.215 455.739C419.918 451.525 424.689 446.487 428.358 440.823C427.369 440.115 425.924 441.07 425.221 442.009Z" fill="#BEBEBE"/>
<g opacity="0.5">
<path d="M370.99 515.173C371.218 514.811 371.427 514.449 371.598 514.07C371.18 514.317 370.952 514.745 370.99 515.173Z" fill="white"/>
<path d="M376.635 489.671C376.255 485.621 376.92 481.538 376.73 477.471C376.54 473.405 375.305 469.124 371.883 466.326C366.979 462.325 353.54 464.366 358.045 471.973C359.414 474.113 362.379 475.084 365.021 474.228C367.549 473.191 368.652 470.573 367.454 468.384C367.454 468.351 367.416 468.318 367.397 468.285C372.815 475.71 372.339 485.259 366.238 492.256C373.233 497.788 375.4 506.563 371.598 514.07C372.548 513.511 373.784 513.511 374.734 514.07C375.894 515.108 376.73 516.392 377.149 517.791C377.814 519.125 379.049 520.508 380.722 520.409C383.003 515.552 382.262 510.037 380.722 504.966C379.182 499.895 377.11 494.956 376.635 489.671Z" fill="white"/>
<path d="M425.81 413.329C423.187 411.567 420.089 410.431 416.819 410.036L425.81 413.329Z" fill="white"/>
<path d="M448.164 464.844C447.442 462.045 445.94 459.444 445.047 456.612C442.975 450.175 444.287 443.293 443.336 436.658C442.044 427.998 436.987 420.079 429.213 414.514L425.81 413.263C429.099 415.42 431.513 418.449 432.653 421.89C435.296 429.76 436.113 437.959 437.292 446.092C439.078 458.653 441.721 471.133 445.18 483.431C447.442 477.373 449.742 471.018 448.164 464.844Z" fill="white"/>
<path d="M411.972 435.571C414.253 433.843 415.679 431.422 415.983 428.805C416.249 426.483 416.173 424.162 415.774 421.857C415.375 422.96 414.082 423.619 412.771 423.421C411.212 422.894 409.919 421.89 409.178 420.589L408.494 422.647L408.208 421.528L407.296 422.532C408.646 425.825 409.957 429.661 407.866 432.674C406.745 434.073 405.281 435.242 403.589 436.098C406.232 437.498 409.596 437.284 411.972 435.571Z" fill="white"/>
<path d="M415.66 421.034L415.774 421.857C415.831 421.577 415.793 421.297 415.66 421.034Z" fill="white"/>
<path d="M405.718 454.356C399.065 443.013 392.412 431.669 385.056 420.639C380.95 414.103 376.084 407.929 370.534 402.249C367.986 399.796 360.725 394.099 356.714 397.853C354.034 400.355 357.551 404.899 354.262 407.616C355.023 407.616 358.729 407.303 359.128 407.731C367.53 416.77 372.035 428.047 371.883 439.654C374.563 437.827 378.251 440.362 380.342 442.7C393.249 457.04 405.3 471.923 416.458 487.317C414.291 480.517 414.234 473.29 411.915 466.54C410.28 462.325 408.208 458.242 405.718 454.356Z" fill="white"/>
<path d="M483.159 481.999C486.562 474.739 488.577 467.034 489.109 459.213C489.47 451.986 487.398 444.807 483.14 438.584C482.038 437.053 477.438 430.731 474.985 431.241C470.518 432.163 476.373 438.881 477.4 440.56C481.201 446.898 485.212 453.599 485.003 460.761C484.813 466.276 482.133 471.462 479.985 476.648C478.369 480.254 477.457 484.073 477.305 487.942C476.981 488.371 476.677 488.815 476.316 489.21C473.484 492.717 469.207 495.154 464.379 496.043C466.28 491.103 468.047 486.164 469.891 481.225C470.556 479.464 470.785 477.06 469.606 475.842C470.005 475.183 470.195 474.442 470.195 473.701C469.929 472.368 469.378 471.084 468.58 469.915C466.032 465.173 466.888 459.658 467.515 454.455C468.275 448.034 468.561 441.432 466.394 435.259C464.227 429.085 459.189 423.355 452.118 421.314L454.019 422.96L451.624 421.445L456.072 429.48L454.437 431.505C456.889 430.385 460.026 431.999 461.147 434.188C462.022 436.477 462.212 438.913 461.698 441.284C460.273 454.62 461.014 468.071 463.942 481.225C463.846 484.304 462.915 487.3 461.204 490C459.322 492.98 455.597 494.726 451.7 494.462C452.555 491.169 451.13 487.745 448.031 485.687C444.23 490.297 446.473 497.458 447.043 502.71C447.936 510.662 449.4 518.565 451.472 526.352C452.08 519.602 453.696 512.967 456.319 506.596C458.372 513.099 460.444 519.602 462.516 526.105C462.421 524.278 462.82 522.45 463.694 520.788C464.645 519.092 466.831 518.219 468.941 518.68C470.461 519.405 471.602 520.623 472.077 522.072C477.457 533.333 478.787 545.747 475.879 557.683C478.426 558.918 481.81 557.436 483.235 555.23C484.414 552.908 484.87 550.356 484.585 547.821C484.072 525.908 483.596 503.962 483.159 481.999Z" fill="white"/>
<path d="M418.72 488.963C417.504 490.807 422.522 498.15 423.301 499.895C427.483 508.753 431.665 517.61 435.866 526.484C434.478 514.795 431.19 503.336 426.134 492.437C425.278 490.61 421.134 485.292 418.72 488.963Z" fill="white"/>
<path d="M425.221 442.009C424.499 442.947 423.491 444.1 422.256 443.77C421.02 443.441 420.887 442.124 420.906 441.087C421.039 434.929 421.153 428.772 421.267 422.598C415.565 426.171 416.249 430.83 415.85 436.164C415.622 439.243 416.648 453.945 414.215 455.739C419.918 451.525 424.689 446.487 428.358 440.823C427.369 440.115 425.924 441.07 425.221 442.009Z" fill="white"/>
</g>
</g>
<path d="M355.384 483.58C353.179 485.094 351.297 486.922 349.814 488.996L355.384 483.58Z" fill="white"/>
<path d="M434.345 633.4L414.5 579.3C395.872 562.688 361.657 547.492 358.691 524.476C354.889 494.94 349.624 496.142 349.624 488.799C351.658 485.177 353.407 481.44 354.87 477.604C355.764 474.673 356.391 471.71 356.771 468.697C357.285 465.602 360.459 463.362 364.071 463.56C366.504 463.692 368.823 464.482 370.705 465.799C374.088 468.499 376.122 472.22 376.407 476.188C376.654 480.123 376.331 484.057 375.4 487.91C378.897 494.265 381.349 501.015 382.68 507.963C384.296 502.431 385.417 496.883 387.014 491.351C387.432 491.137 387.242 490.709 387.622 490.478C384.353 485.341 386.786 485.539 380.228 474.097C369.184 454.933 357.075 436.543 347.552 412.21C346.773 409.938 346.64 407.55 347.191 405.229C349.415 398.001 357.95 399.137 361.942 403.056C362.987 404.093 363.843 405.245 364.508 406.497C370.286 416.77 377.148 426.566 384.98 435.769L407.79 461.831C407.79 461.831 414.595 456.316 415.527 453.962C416.42 451.607 415.527 433.069 415.527 433.069C415.527 433.069 414.158 436.625 410.528 436.625C407.904 436.625 402.696 438.272 398.628 434.781C395.378 431.884 394.883 427.422 397.469 424.047L405.965 412.522C409.919 409.427 415.546 408.522 420.526 410.152C426.78 412.424 432.596 415.486 437.824 419.223C442.766 418.845 447.727 419.404 452.384 420.87C459.227 423.257 466.774 430.748 466.774 430.748C466.774 430.748 474.51 430.748 478.179 432.674C479.091 433.168 492.093 448.38 488.786 460.992C486.885 468.516 486.105 479.316 485.193 482.246L484.965 555.032L500.666 603.271" stroke="#263238" stroke-miterlimit="10"/>
<path d="M439.839 421.841C443.184 432.575 444.933 443.639 445.009 454.768C444.895 456.628 445.123 458.505 445.693 460.3C446.302 462.127 447.936 463.543 450.046 464.07" stroke="#263238" stroke-miterlimit="10"/>
<path d="M466.66 432.657C472.362 442.964 466.527 465.996 466.945 467.61C467.306 469.273 468.466 470.705 470.157 471.561" stroke="#263238" stroke-miterlimit="10"/>
<path d="M417.656 420.441C416.99 423.734 416.439 427.504 415.755 430.78C411.288 427.455 408.532 422.713 408.151 417.609" stroke="#263238" stroke-miterlimit="10"/>
<path d="M381.235 508.275L377.11 509.773" stroke="#263238" stroke-miterlimit="10"/>
<path d="M382.281 511.123C381.635 513.873 381.635 516.705 382.281 519.454" stroke="#263238" stroke-miterlimit="10"/>
<path d="M406.308 480.369C407.828 482.723 409.33 485.094 410.851 487.465" stroke="#263238" stroke-miterlimit="10"/>
<path d="M415.128 454.389L419.652 448.858" stroke="#263238" stroke-miterlimit="10"/>
<path d="M478.673 480.369L477.305 484.699" stroke="#263238" stroke-miterlimit="10"/>
<path d="M467.61 468.499C468.884 464.811 470.214 461.123 471.621 457.435" stroke="#263238" stroke-miterlimit="10"/>
<path d="M480.992 448.858C483.501 447.738 486.581 448.561 487.911 450.718" stroke="#263238" stroke-miterlimit="10"/>
<path d="M453.677 429.974C456.889 429.2 460.33 429.875 462.82 431.785" stroke="#263238" stroke-miterlimit="10"/>
<path d="M369.013 440.955C371.997 438.107 376.388 436.674 380.798 437.102" stroke="#263238" stroke-miterlimit="10"/>
<path d="M351.848 409.904C354.585 408.192 358.007 407.484 361.352 407.962" stroke="#263238" stroke-miterlimit="10"/>
<path d="M355.384 483.58C353.179 485.094 351.297 486.922 349.814 488.996" stroke="#263238" stroke-miterlimit="10"/>
<path d="M357.209 476.105C360.212 474.245 365.002 478.394 367.758 476.27C368.747 475.298 369.108 473.965 368.69 472.714C368.291 471.495 368.1 470.211 368.138 468.943" stroke="#263238" stroke-miterlimit="10"/>
<path d="M441.968 464.679C445.617 471.248 446.359 478.772 444.059 485.786" stroke="#263238" stroke-miterlimit="10"/>
<path d="M464.056 474.837C464.645 477.949 463.98 481.159 462.155 483.892" stroke="#263238" stroke-miterlimit="10"/>
<path opacity="0.2" d="M280.262 499.549C280.433 500.685 280.376 501.854 280.091 502.974C278.855 507.913 275.282 522.368 273.97 530.271C272.411 539.918 254.41 569.784 254.41 569.784C254.41 569.784 237.835 587.63 229.395 596.916C225.251 601.476 218.693 619.965 213.124 637.515C206.091 635.671 199.114 633.679 192.214 631.556C186.512 629.794 180.809 627.934 175.107 626.007C164.937 622.352 155.015 618.171 145.415 613.495C148.571 603.617 150.681 595.928 150.643 595.483C150.548 594.446 157.41 583.004 157.41 583.004L151.422 514.712L147.886 504.324C146.043 498.957 144.883 493.441 144.408 487.86C143.667 479.381 144.484 470.87 146.86 462.621L157.182 449.351L162.01 449.039L176.951 430.929C176.951 430.929 185.029 428.821 187.101 434.09C189.173 439.358 180.372 449.203 180.372 449.203L177.35 465.453L184.535 480.665L188.337 481.851C188.337 481.851 189.591 455.064 188.736 449.714L196.529 425.364C198.867 421.38 200.939 417.28 202.726 413.082C204.171 408.982 212.668 404.85 217.553 412.111C219.226 414.778 219.511 417.939 218.313 420.787C216.317 425.808 214.663 429.76 214.663 429.76C214.663 429.76 212.763 450.471 212.287 451.047C211.812 451.623 215.804 481.884 215.804 481.884L218.921 483.086L220.024 454.192L226.506 427.043C226.506 427.043 225.974 413.987 236.599 415.519C239.945 415.403 243.043 417.083 244.412 419.733C247.244 424.425 244.545 455.674 244.545 455.674L247.168 487.975L251.369 512.885L256.311 495.812C256.311 495.812 256.596 471.347 274.426 469.256C274.426 469.256 279.73 468.433 280.813 471.627C281.897 474.821 278.171 481.34 278.703 487.597C279.178 492.042 279.901 496.997 280.262 499.549Z" fill="black"/>
<path d="M274.845 469.306C274.027 466.013 268.686 466.523 268.686 466.523C250.723 467.445 248.309 491.828 248.309 491.828L241.865 508.522L239.964 483.398L240.154 451.014C240.154 451.014 245.59 420.03 243.176 415.173C242.055 412.44 239.108 410.563 235.744 410.464C225.289 408.192 224.681 421.248 224.681 421.248L215.861 447.886L212.23 476.615L209.227 475.232C209.227 475.232 207.801 444.742 208.41 444.231C209.018 443.721 212.63 423.174 212.63 423.174C212.63 423.174 214.625 419.338 217.059 414.465C218.503 411.699 218.503 408.521 217.059 405.756C212.82 398.281 204 401.771 202.175 405.756C200.027 409.822 197.613 413.773 194.952 417.593L184.877 441.449C185.257 446.849 181.684 473.487 181.684 473.487L178.053 472.055L172.217 456.414L176.665 440.395C176.665 440.395 186.303 431.176 184.687 425.775C183.071 420.375 174.841 421.956 174.841 421.956L158.284 438.979H153.437L142.032 451.508C136.9 464.943 135.987 479.315 139.409 493.145L142.032 503.731V572.154C142.032 572.154 134.2 583.119 134.2 584.157C134.2 584.634 130.969 593.277 126.464 604.061C146.176 614.104 163.15 621.875 175.183 625.974C180.885 627.917 186.588 629.761 192.29 631.523C199.514 613.956 207.953 595.171 212.611 590.775C221.849 582.082 239.945 565.355 239.945 565.355C239.945 565.355 260.493 536.757 262.907 527.258C264.808 519.454 269.712 505.279 271.385 500.422C271.765 499.319 271.936 498.166 271.841 497.014C271.708 494.446 271.423 489.457 271.423 485.061C271.347 478.822 275.643 472.549 274.845 469.306Z" fill="white"/>
<mask id="mask1_29_426" style="mask-type:luminance" maskUnits="userSpaceOnUse" x="126" y="401" width="149" height="231">
<path d="M274.845 469.306C274.027 466.013 268.686 466.523 268.686 466.523C250.723 467.445 248.309 491.828 248.309 491.828L241.865 508.522L239.964 483.398L240.154 451.014C240.154 451.014 245.59 420.03 243.176 415.173C242.055 412.44 239.108 410.563 235.744 410.464C225.289 408.192 224.681 421.248 224.681 421.248L215.861 447.886L212.23 476.615L209.227 475.232C209.227 475.232 207.801 444.742 208.41 444.231C209.018 443.721 212.63 423.174 212.63 423.174C212.63 423.174 214.625 419.338 217.059 414.465C218.503 411.699 218.503 408.521 217.059 405.756C212.82 398.281 204 401.771 202.175 405.756C200.027 409.822 197.613 413.773 194.952 417.593L184.877 441.449C185.257 446.849 181.684 473.487 181.684 473.487L178.053 472.055L172.217 456.414L176.665 440.395C176.665 440.395 186.303 431.176 184.687 425.775C183.071 420.375 174.841 421.956 174.841 421.956L158.284 438.979H153.437L142.032 451.508C136.9 464.943 135.987 479.315 139.409 493.145L142.032 503.731V572.154C142.032 572.154 134.2 583.119 134.2 584.157C134.2 584.634 130.969 593.277 126.464 604.061C146.176 614.104 163.15 621.875 175.183 625.974C180.885 627.917 186.588 629.761 192.29 631.523C199.514 613.956 207.953 595.171 212.611 590.775C221.849 582.082 239.945 565.355 239.945 565.355C239.945 565.355 260.493 536.757 262.907 527.258C264.808 519.454 269.712 505.279 271.385 500.422C271.765 499.319 271.936 498.166 271.841 497.014C271.708 494.446 271.423 489.457 271.423 485.061C271.347 478.822 275.643 472.549 274.845 469.306Z" fill="white"/>
</mask>
<g mask="url(#mask1_29_426)">
<path d="M151.479 462.424C154.558 459.131 160.869 457.83 164.443 460.777C166.287 462.621 167.427 464.926 167.693 467.363C167.959 469.799 168.948 472.137 170.564 474.146C172.465 476.006 176.057 476.731 177.977 474.953C178.243 478.558 178.49 482.164 178.756 485.769C183.204 479.052 185.466 471.413 185.295 463.675C185.295 459.938 184.554 456.135 185.561 452.48C186.569 448.825 189.819 445.301 194.153 445.12C198.943 444.939 202.726 448.973 203.658 453.056C204.589 457.139 203.505 461.288 203.22 465.469C202.764 471.824 204.19 478.179 207.326 483.925L210.349 478.624C211.261 482.18 212.249 485.72 213.067 489.26C213.846 481.456 214.644 473.652 215.424 465.865C215.481 463.658 216.051 461.469 217.078 459.444C218.18 457.402 220.575 456.102 223.179 456.151C226.601 456.447 228.578 459.608 229.718 462.407C238.291 483.398 234.756 506.431 231.125 528.46C233.501 528.838 235.516 526.813 236.105 524.722C236.371 522.648 236.808 520.59 237.379 518.565C238.272 516.606 241.009 515.009 243.081 516.128C246.085 517.775 243.994 522.813 247.13 524.212C248.119 517.659 251.103 511.453 255.741 506.217C257.851 503.846 261.006 501.492 264.352 502.249C266.842 502.99 268.591 504.917 268.857 507.189C269.218 509.395 272.906 500.274 272.259 502.431C273.704 489.737 270.815 488.403 272.259 475.693C272.525 473.405 276.802 469.437 274.978 467.758C273.153 466.079 268.077 463.807 265.777 464.729C263.477 465.651 256.026 468.877 254.543 470.639C245.191 481.818 245.838 497.985 242.929 511.551C240.439 490.873 237.987 469.849 242.359 449.417C244.773 438.14 249.221 426.368 245.02 415.519C243.119 410.579 238.006 405.64 232.056 406.529C227.266 407.287 224.453 411.468 222.419 415.354C215.88 428.36 212.915 442.486 210.101 456.513L220.784 414.284C221.982 410.678 222.362 406.908 221.887 403.187C221.107 399.499 218.199 395.894 213.979 395.12C209.759 394.346 205.615 396.503 202.46 399.005C191.055 407.962 186.949 421.627 183.261 434.501C184.82 431.208 185.58 427.669 185.466 424.113C185.067 420.589 182.482 417 178.49 416.226C173.301 415.255 168.606 419.256 166.325 423.388C164.044 427.521 162.941 432.312 159.311 435.654C156.668 433.085 151.707 433.233 148.4 435.143C145.225 437.267 142.83 440.115 141.462 443.375C135.493 454.999 132.965 467.709 134.105 480.386C136.919 475.232 143.153 472.154 149.711 472.681C149.331 469.882 148.97 467.083 148.59 464.268" fill="#BEBEBE"/>
<path d="M164.006 489.21C163.835 491.285 163.683 493.359 163.512 495.433C164.291 493.919 166.344 493.244 168.074 493.919C168.321 494.018 168.549 494.133 168.777 494.281C168.72 492.915 169.138 491.581 169.974 490.428C170.583 489.177 170.64 487.399 169.233 486.806C167.826 486.214 165.926 487.761 165.032 489.177C165.032 488.667 164.899 488.156 164.823 487.63L164.006 489.21Z" fill="#BEBEBE"/>
<path d="M191.264 485.489C189.306 487.448 187.995 489.819 187.462 492.371C188.242 491.614 189.192 491.005 190.257 490.593C191.359 490.198 192.614 490.461 193.412 491.219C193.83 491.713 193.982 492.437 194.628 492.717C195.351 492.98 196.168 492.717 196.529 492.124C196.852 491.564 197.024 490.939 197.005 490.313C197.176 489.128 197.1 487.909 196.776 486.741C196.434 485.555 195.389 484.6 194.039 484.255C192.709 483.991 191.378 484.732 191.093 485.884C191.093 485.95 191.074 486 191.055 486.066L191.264 485.489Z" fill="#BEBEBE"/>
<path d="M217.667 491.153C215.595 493.573 214.226 496.405 213.675 499.385C215.063 499.088 216.336 498.496 217.382 497.656C218.427 496.8 219.758 496.224 221.183 496.01C222.628 495.862 223.959 496.751 224.13 498.002C223.959 496.602 224.016 495.203 224.282 493.82C224.548 492.437 224.434 491.005 223.94 489.671C223.388 488.321 221.925 487.383 220.271 487.333C218.864 487.399 217.8 488.453 217.876 489.671C217.876 489.885 217.933 490.099 218.028 490.297L217.667 491.136V491.153Z" fill="#BEBEBE"/>
<path d="M145.035 499.418C143.572 501.805 142.811 504.456 142.811 507.156C142.963 505.888 144.142 504.884 145.605 504.752C147.031 504.653 148.476 504.982 149.654 505.69C150.034 504.456 150.129 503.171 149.92 501.904C149.673 500.636 148.59 499.599 147.145 499.27C145.681 499.072 144.085 500.274 144.484 501.492L144.047 500.554L145.035 499.418Z" fill="#BEBEBE"/>
<path opacity="0.5" d="M151.479 462.424C154.558 459.131 160.869 457.83 164.443 460.777C166.287 462.621 167.427 464.926 167.693 467.363C167.959 469.799 168.948 472.137 170.564 474.146C172.465 476.006 176.057 476.731 177.977 474.953C178.243 478.558 178.49 482.164 178.756 485.769C183.204 479.052 185.466 471.413 185.295 463.675C185.295 459.938 184.554 456.135 185.561 452.48C186.569 448.825 189.819 445.301 194.153 445.12C198.943 444.939 202.726 448.973 203.658 453.056C204.589 457.139 203.505 461.288 203.22 465.469C202.764 471.824 204.19 478.179 207.326 483.925L210.349 478.624C211.261 482.18 212.249 485.72 213.067 489.26C213.846 481.456 214.644 473.652 215.424 465.865C215.481 463.658 216.051 461.469 217.078 459.444C218.18 457.402 220.575 456.102 223.179 456.151C226.601 456.447 228.578 459.608 229.718 462.407C238.291 483.398 234.756 506.431 231.125 528.46C233.501 528.838 235.516 526.813 236.105 524.722C236.371 522.648 236.808 520.59 237.379 518.565C238.272 516.606 241.009 515.009 243.081 516.128C246.085 517.775 243.994 522.813 247.13 524.212C248.119 517.659 251.103 511.453 255.741 506.217C257.851 503.846 261.006 501.492 264.352 502.249C266.842 502.99 268.591 504.917 268.857 507.189C269.218 509.395 272.906 500.274 272.259 502.431C273.704 489.737 270.815 488.403 272.259 475.693C272.525 473.405 276.802 469.437 274.978 467.758C273.153 466.079 268.077 463.807 265.777 464.729C263.477 465.651 256.026 468.877 254.543 470.639C245.191 481.818 245.838 497.985 242.929 511.551C240.439 490.873 237.987 469.849 242.359 449.417C244.773 438.14 249.221 426.368 245.02 415.519C243.119 410.579 238.006 405.64 232.056 406.529C227.266 407.287 224.453 411.468 222.419 415.354C215.88 428.36 212.915 442.486 210.101 456.513L220.784 414.284C221.982 410.678 222.362 406.908 221.887 403.187C221.107 399.499 218.199 395.894 213.979 395.12C209.759 394.346 205.615 396.503 202.46 399.005C191.055 407.962 186.949 421.627 183.261 434.501C184.82 431.208 185.58 427.669 185.466 424.113C185.067 420.589 182.482 417 178.49 416.226C173.301 415.255 168.606 419.256 166.325 423.388C164.044 427.521 162.941 432.312 159.311 435.654C156.668 433.085 151.707 433.233 148.4 435.143C145.225 437.267 142.83 440.115 141.462 443.375C135.493 454.999 132.965 467.709 134.105 480.386C136.919 475.232 143.153 472.154 149.711 472.681C149.331 469.882 148.97 467.083 148.59 464.268" fill="white"/>
<g opacity="0.5">
<path d="M164.006 489.21C163.835 491.285 163.683 493.359 163.512 495.433C164.291 493.919 166.344 493.244 168.074 493.919C168.321 494.018 168.549 494.133 168.777 494.281C168.72 492.915 169.138 491.581 169.974 490.428C170.583 489.177 170.64 487.399 169.233 486.806C167.826 486.214 165.926 487.761 165.032 489.177C165.032 488.667 164.899 488.156 164.823 487.63L164.006 489.21Z" fill="white"/>
<path d="M191.264 485.489C189.306 487.449 187.995 489.819 187.462 492.371C188.242 491.614 189.192 491.005 190.257 490.593C191.359 490.198 192.614 490.461 193.412 491.219C193.83 491.713 193.982 492.437 194.628 492.717C195.351 492.98 196.168 492.717 196.529 492.124C196.852 491.564 197.024 490.939 197.005 490.313C197.176 489.128 197.1 487.91 196.776 486.741C196.434 485.555 195.389 484.6 194.039 484.255C192.709 483.991 191.378 484.732 191.093 485.884C191.093 485.95 191.074 486 191.055 486.066L191.264 485.489Z" fill="white"/>
<path d="M217.667 491.153C215.595 493.573 214.226 496.405 213.675 499.385C215.063 499.088 216.336 498.496 217.382 497.656C218.427 496.8 219.758 496.224 221.183 496.01C222.628 495.862 223.959 496.751 224.13 498.002C223.959 496.602 224.016 495.203 224.282 493.82C224.548 492.437 224.434 491.005 223.94 489.671C223.388 488.321 221.925 487.383 220.271 487.333C218.864 487.399 217.8 488.453 217.876 489.671C217.876 489.885 217.933 490.099 218.028 490.297L217.667 491.136V491.153Z" fill="white"/>
<path d="M145.035 499.418C143.572 501.805 142.811 504.456 142.811 507.156C142.963 505.888 144.142 504.884 145.605 504.752C147.031 504.653 148.476 504.982 149.654 505.69C150.034 504.456 150.129 503.171 149.92 501.904C149.673 500.636 148.59 499.599 147.145 499.27C145.681 499.072 144.085 500.274 144.484 501.492L144.047 500.554L145.035 499.418Z" fill="white"/>
</g>
</g>
<path d="M126.407 604.094C130.912 593.31 134.143 584.667 134.143 584.189C134.143 583.152 141.975 572.187 141.975 572.187V503.764L139.352 493.178C135.93 479.348 136.842 464.976 141.975 451.541L153.38 439.012H158.227L174.688 421.956C174.688 421.956 182.938 420.309 184.535 425.775C186.132 431.241 176.513 440.395 176.513 440.395L172.065 456.414L177.901 472.055L181.532 473.487C181.532 473.487 185.105 446.849 184.725 441.449L194.8 417.593C197.461 413.773 199.875 409.822 202.023 405.756C203.924 401.771 212.668 398.281 216.906 405.756C218.351 408.521 218.351 411.699 216.906 414.465C214.473 419.404 212.477 423.174 212.477 423.174C212.477 423.174 208.866 443.704 208.258 444.231C207.649 444.758 209.075 475.232 209.075 475.232L212.078 476.615L215.709 447.886L224.529 421.248C224.529 421.248 225.137 408.192 235.592 410.464C238.956 410.563 241.903 412.44 243.024 415.173C245.438 420.03 240.002 451.014 240.002 451.014L239.869 483.431L241.77 508.555L248.214 491.861C248.214 491.861 250.628 467.478 268.591 466.556C268.591 466.556 273.932 466.079 274.749 469.338C275.567 472.598 271.252 478.854 271.252 485.127C271.252 489.523 271.537 494.511 271.67 497.08C271.765 498.232 271.594 499.385 271.214 500.488C269.541 505.427 264.713 519.52 262.736 527.324C260.322 536.823 239.774 565.421 239.774 565.421C239.774 565.421 221.678 582.148 212.439 590.841C207.782 595.237 199.343 614.022 192.119 631.589" stroke="#263238" stroke-miterlimit="10"/>
<path d="M181.323 476.056C182.368 479.381 181.342 482.937 178.623 485.44L181.323 476.056Z" fill="white"/>
<path d="M181.323 476.056C182.368 479.381 181.342 482.937 178.623 485.44" stroke="#263238" stroke-miterlimit="10"/>
<path d="M150.605 499.072C153.209 495.582 155.756 490.758 155.053 486.642C153.684 478.558 149.35 469.256 151.251 461.255C152.468 456.151 153.684 451.031 154.92 445.927" fill="white"/>
<path d="M150.605 499.072C153.209 495.582 155.756 490.758 155.053 486.642C153.684 478.558 149.35 469.256 151.251 461.255C152.468 456.151 153.684 451.031 154.92 445.927" stroke="#263238" stroke-miterlimit="10"/>
<path d="M226.392 422.713C229.509 422.005 232.779 422.005 235.896 422.713C235.896 421.939 235.896 421.182 235.991 420.408" stroke="#263238" stroke-miterlimit="10"/>
<path d="M201.434 412.44C204.209 414.07 207.991 413.461 209.892 411.04C210.596 410.151 210.957 409.114 210.938 408.044" stroke="#263238" stroke-miterlimit="10"/>
<path d="M270.13 469.585C264.713 470.787 261.044 475.167 261.405 480.007L266.063 481.225" stroke="#263238" stroke-miterlimit="10"/>
<path d="M208.961 471.594C209.17 474.36 208.771 480.962 208.961 483.728V471.594Z" fill="white"/>
<path d="M208.961 471.594C209.17 474.36 208.771 480.962 208.961 483.728" stroke="#263238" stroke-miterlimit="10"/>
<path d="M212.458 475.43C212.078 479.941 211.698 484.469 211.299 488.996V487.267" fill="white"/>
<path d="M212.458 475.43C212.078 479.941 211.698 484.469 211.299 488.996V487.267" stroke="#263238" stroke-miterlimit="10"/>
<path d="M241.466 513.576C242.853 518.581 242.207 523.833 239.679 528.493L241.466 513.576Z" fill="white"/>
<path d="M241.466 513.576C242.853 518.581 242.207 523.833 239.679 528.493" stroke="#263238" stroke-miterlimit="10"/>
<path d="M193.279 489.852C189.135 493.787 189.743 503.237 192.671 508.423" stroke="#263238" stroke-miterlimit="10"/>
<path d="M223.902 496.355C223.921 500.768 222.134 505.048 218.826 508.423" stroke="#263238" stroke-miterlimit="10"/>
<path d="M163.093 491.663C162.409 495.68 163.416 499.763 165.926 503.188" stroke="#263238" stroke-miterlimit="10"/>
<path d="M145.453 504.028C145.263 507.156 146.29 510.251 148.381 512.819" stroke="#263238" stroke-miterlimit="10"/>
<path d="M169.632 428.13C171.856 427.241 174.498 427.603 176.285 429.052L178.623 426.368" stroke="#263238" stroke-miterlimit="10"/>
<path d="M189.135 440.214C192.442 438.518 196.7 439.127 199.191 441.679" stroke="#263238" stroke-miterlimit="10"/>
<path d="M219.587 448.446C223.046 447.112 227.019 447.195 230.403 448.644" stroke="#263238" stroke-miterlimit="10"/>
<path d="M151.821 462.259C153.893 459.263 157.771 457.6 161.782 457.978" stroke="#263238" stroke-miterlimit="10"/>
<path d="M139.066 477.998C139.2 475.809 141.062 473.981 143.572 473.619" stroke="#263238" stroke-miterlimit="10"/>
<path d="M630.375 100.315C618.803 108.864 606.327 116.453 593.093 122.97L593.086 122.974C523.938 158.405 445.814 179.63 366.325 189.98C286.837 200.33 205.896 200.018 125.777 194.307C110.031 193.187 94.0966 191.806 79.7094 186.337C67.6433 181.735 56.7528 173.788 51.6273 163.577C57.3886 157.889 63.0123 152.184 68.612 146.504C79.8055 135.15 90.9032 123.893 102.812 113.054L102.812 113.054C107.083 109.157 111.469 105.326 115.95 101.543C119.749 98.4008 123.542 95.3132 127.598 92.2927C128.151 91.8826 128.705 91.4718 129.259 91.0605C133.314 88.0509 137.396 85.021 141.684 82.131C148.42 77.5953 155.516 73.2406 163.105 69.0831C163.809 68.6987 164.517 68.3173 165.218 67.9388C166.4 67.3018 167.566 66.6732 168.675 66.0532C263.375 15.0527 345.541 -2.09699 415.633 2.06594C485.723 6.22882 543.774 31.7059 590.24 66.0159C597.285 71.2624 604.082 76.6235 610.594 82.0991L610.596 82.1006C614.54 85.3852 618.352 88.8186 621.976 92.2695L621.985 92.2776L621.993 92.2854C622.397 92.6346 622.764 93.0007 623.167 93.3988L623.172 93.4038L623.177 93.4086C625.65 95.7216 628.055 98.019 630.375 100.315Z" fill="#BFBFBF" stroke="black"/>
<path d="M638.63 84.0048L0.950439 86.5238L10.5878 73.9949C15.2259 67.9856 23.0384 64.3636 31.3831 64.3636H608.406C615.972 64.3636 623.138 67.3435 627.871 72.4473L638.63 84.0048Z" fill="white" stroke="black" stroke-linecap="round" stroke-linejoin="round"/>
<path d="M330.901 166.784H295.963C260.112 166.784 231.049 191.957 231.049 223.008V253.268C231.049 284.32 260.112 309.492 295.963 309.492H330.901C366.752 309.492 395.815 284.32 395.815 253.268V223.008C395.815 191.957 366.752 166.784 330.901 166.784Z" fill="#ACACAC" stroke="black" stroke-linecap="round" stroke-linejoin="round"/>
<path d="M260.987 250.206V270.49C260.987 276.861 266.937 282.014 274.293 282.014H354.642C361.961 282.014 367.891 276.91 367.948 270.572C368.043 261.434 368.614 250.206 368.614 250.206H260.987Z" fill="#999999" stroke="black" stroke-linecap="round" stroke-linejoin="round"/>
<path d="M555.069 256.973H85.1583C80.2161 256.973 75.7681 254.372 73.9433 250.387L1.46367 89.2239C-0.0189952 85.9146 1.86285 82.1938 5.66456 80.9097C6.51994 80.6133 7.43235 80.4651 8.34476 80.4651H631.825C635.912 80.4651 639.238 83.3298 639.257 86.8695C639.257 87.6763 639.086 88.4665 638.744 89.2239L566.265 250.338C564.459 254.339 560.03 256.973 555.069 256.973Z" fill="#ACACAC" stroke="black" stroke-linecap="round" stroke-linejoin="round"/>
<path d="M623.253 91.1726L558.218 242.446H80.8679L15.5303 91.1726H623.253Z" fill="white" stroke="black"/>
<path d="M368.062 256.759H261.501V263.081H368.062V256.759Z" fill="#373737"/>
<path d="M488.729 236.475H151.175C149.274 236.475 147.563 235.751 147.221 234.829L99.2056 102.642C98.6734 101.16 100.175 99.9582 102.57 99.9582H537.334C539.729 99.9582 541.135 101.16 540.679 102.642L492.682 234.829C492.34 235.669 490.573 236.475 488.729 236.475Z" fill="#ACACAC"/>
<path d="M487.474 233.397H152.43L111.618 117.311H528.285L487.474 233.397Z" fill="black"/>
<path d="M200.521 146.139H137.09C135.512 146.139 134.485 146.863 134.79 147.785C135.417 148.872 136.728 149.53 138.135 149.432H201.205C202.764 149.432 203.867 148.707 203.696 147.785C203.524 146.863 202.08 146.139 200.521 146.139Z" fill="white"/>
<path d="M202.631 156.165H148.685C147.145 156.165 146.119 156.873 146.404 157.812C147.031 158.849 148.305 159.475 149.654 159.376H203.296C204.836 159.376 205.92 158.668 205.748 157.812C205.577 156.956 204.133 156.165 202.631 156.165Z" fill="white"/>
<path opacity="0.5" d="M204.684 165.846H143.476C141.956 165.846 140.967 166.537 141.233 167.361C141.861 168.381 143.134 168.974 144.465 168.875H205.292C206.794 168.875 207.877 168.2 207.706 167.361C207.535 166.521 206.205 165.846 204.684 165.846Z" fill="white"/>
<path d="M206.661 175.197H170.716C169.233 175.197 168.207 175.856 168.435 176.663C168.663 177.469 170.05 178.128 171.533 178.128H207.288C208.771 178.128 209.835 177.469 209.664 176.663C209.493 175.856 208.144 175.197 206.661 175.197Z" fill="white"/>
<path d="M208.581 184.22H149.426C147.982 184.22 146.993 184.862 147.259 185.652C147.525 186.442 148.894 187.051 150.358 187.051H209.17C210.634 187.051 211.679 186.426 211.527 185.652C211.375 184.878 210.044 184.22 208.581 184.22Z" fill="white"/>
<path d="M210.425 192.962H162.675C161.231 192.962 160.261 193.571 160.489 194.328C160.717 195.086 162.067 195.695 163.493 195.695H211.014C212.44 195.695 213.466 195.086 213.314 194.328C213.162 193.571 211.869 192.962 210.425 192.962Z" fill="white"/>
<path d="M212.211 201.408H165.241C163.816 201.408 162.865 202 163.093 202.725C163.321 203.449 164.633 204.058 166.04 204.058H212.782C214.188 204.058 215.196 203.466 215.044 202.725C214.892 201.984 213.637 201.408 212.211 201.408Z" fill="white"/>
<path d="M213.941 209.574H162.618C161.231 209.574 160.28 210.15 160.508 210.858C160.736 211.566 162.029 212.142 163.416 212.142H214.416C215.804 212.142 216.811 211.566 216.659 210.858C216.507 210.15 215.348 209.574 213.941 209.574Z" fill="white"/>
<path opacity="0.5" d="M215.633 217.493H182.52C181.151 217.493 180.201 218.053 180.391 218.744C180.581 219.435 181.855 219.979 183.204 219.979H216.146C217.515 219.979 218.503 219.419 218.37 218.744C218.237 218.069 217.002 217.493 215.633 217.493Z" fill="white"/>
<path opacity="0.5" d="M198.316 135.734H151.042C149.445 135.734 148.381 136.491 148.666 137.38C149.293 138.483 150.624 139.125 152.03 139.027H199.019C200.616 139.027 201.738 138.286 201.548 137.38C200.996 136.277 199.685 135.602 198.316 135.734Z" fill="white"/>
<path d="M196.016 124.95H130.209C128.593 124.95 127.528 125.74 127.851 126.712C128.498 127.848 129.885 128.539 131.349 128.457H196.757C198.373 128.457 199.533 127.667 199.324 126.712C198.81 125.543 197.442 124.835 196.016 124.95Z" fill="white"/>
<path d="M217.249 225.165H162.713C161.364 225.165 160.451 225.708 160.66 226.367C160.869 227.025 162.143 227.569 163.493 227.569H217.762C219.092 227.569 220.081 227.042 219.948 226.367C219.815 225.692 218.598 225.165 217.249 225.165Z" fill="white"/>
<path opacity="0.5" d="M222.799 149.794H235.098L234.489 145.727H222.096L222.799 149.794Z" fill="white"/>
<path opacity="0.5" d="M224.51 159.705H236.599L236.01 155.77H223.826L224.51 159.705Z" fill="white"/>
<path opacity="0.5" d="M226.164 169.254H238.044L237.474 165.467H225.517L226.164 169.254Z" fill="white"/>
<path opacity="0.5" d="M227.76 178.49H239.451L238.88 174.835H227.133L227.76 178.49Z" fill="white"/>
<path opacity="0.5" d="M229.319 187.414H240.8L240.249 183.874H228.711L229.319 187.414Z" fill="white"/>
<path opacity="0.5" d="M230.802 196.041H242.093L241.58 192.616H230.212L230.802 196.041Z" fill="white"/>
<path opacity="0.5" d="M232.265 204.388H243.366L242.872 201.078H231.695L232.265 204.388Z" fill="white"/>
<path opacity="0.5" d="M233.653 212.455H244.583L244.108 209.261H233.102L233.653 212.455Z" fill="white"/>
<path opacity="0.5" d="M235.022 220.292H245.78L245.305 217.18H234.47L235.022 220.292Z" fill="white"/>
<path opacity="0.5" d="M221.012 139.537H233.539L232.912 135.322H220.29L221.012 139.537Z" fill="white"/>
<path opacity="0.5" d="M219.169 128.885H231.923L231.277 124.506H218.408L219.169 128.885Z" fill="white"/>
<path opacity="0.5" d="M236.333 227.881H246.921L246.465 224.869H235.801L236.333 227.881Z" fill="white"/>
<path d="M301.171 210.858C301.171 210.15 302.236 209.574 303.624 209.574H485.763C487.151 209.574 488.082 210.15 487.854 210.858C487.246 211.73 486.106 212.241 484.927 212.142H303.719C302.331 212.142 301.19 211.566 301.171 210.858Z" fill="white"/>
<path d="M487.607 204.058H386.748C385.341 204.058 384.277 203.466 384.372 202.725C384.467 201.984 385.683 201.408 387.109 201.408H488.482C489.888 201.408 490.839 202 490.592 202.725C489.983 203.63 488.824 204.157 487.607 204.058Z" fill="white"/>
<path opacity="0.5" d="M362.816 204.058H331.49C330.083 204.058 328.943 203.466 328.962 202.725C328.981 201.984 330.121 201.408 331.547 201.408H363.044C364.451 201.408 365.553 202 365.477 202.725C365.401 203.449 364.223 204.058 362.816 204.058Z" fill="white"/>
<path d="M428.282 195.695H286.022C284.596 195.695 283.398 195.086 283.341 194.328C283.284 193.571 284.406 192.962 285.851 192.962H428.871C430.296 192.962 431.342 193.571 431.171 194.328C431 195.086 429.726 195.695 428.282 195.695Z" fill="white"/>
<path opacity="0.5" d="M256.273 192.962H266.424C267.849 192.962 269.085 193.571 269.161 194.328C269.237 195.086 268.135 195.695 266.709 195.695H256.615C255.19 195.695 253.954 195.086 253.859 194.328C253.764 193.571 254.848 192.962 256.273 192.962Z" fill="white"/>
<path d="M448.868 185.652C448.678 186.426 447.347 187.051 445.883 187.051H311.835C310.372 187.051 309.193 186.426 309.174 185.652C309.155 184.878 310.334 184.22 311.778 184.22H446.568C448.031 184.22 449.058 184.862 448.868 185.652Z" fill="white"/>
<path d="M255.209 184.22H293.226C294.689 184.22 295.906 184.862 295.944 185.652C295.982 186.442 294.823 187.051 293.378 187.051H255.551C254.106 187.051 252.852 186.426 252.738 185.652C252.624 184.878 253.745 184.22 255.209 184.22Z" fill="white"/>
<path d="M254.087 175.197H400.339C401.822 175.197 402.924 175.856 402.791 176.663C402.658 177.469 401.365 178.128 399.883 178.128H254.448C252.985 178.128 251.692 177.469 251.597 176.663C251.502 175.856 252.605 175.197 254.087 175.197Z" fill="white"/>
<path d="M349.035 168.875C347.533 168.875 346.355 168.2 346.393 167.361C346.431 166.521 347.685 165.846 349.206 165.846H426.362C427.882 165.846 428.966 166.537 428.795 167.361C428.624 168.184 427.274 168.875 425.772 168.875H349.035Z" fill="white"/>
<path d="M252.947 165.846H319.724C321.244 165.846 322.461 166.537 322.461 167.361C322.461 168.184 321.225 168.875 319.724 168.875H253.327C251.806 168.875 250.514 168.2 250.4 167.361C250.286 166.521 251.426 165.846 252.947 165.846Z" fill="white"/>
<path d="M502.434 159.31H318.602C317.082 159.31 315.827 158.602 315.827 157.746C315.827 156.89 317.063 156.099 318.602 156.099H503.46C505 156.099 506.007 156.807 505.722 157.746C505.076 158.783 503.783 159.392 502.434 159.31Z" fill="white"/>
<path d="M505.703 149.399H343.96C342.401 149.399 341.165 148.674 341.203 147.752C341.241 146.83 342.534 146.106 344.093 146.106H506.787C508.345 146.106 509.372 146.83 509.068 147.752C508.441 148.839 507.11 149.498 505.703 149.399Z" fill="white"/>
<path opacity="0.5" d="M509.125 139.109H475.252C473.655 139.109 472.571 138.368 472.819 137.463C473.427 136.359 474.757 135.701 476.164 135.816H510.17C511.767 135.816 512.812 136.574 512.489 137.463C511.843 138.533 510.531 139.191 509.125 139.109Z" fill="white"/>
<path d="M451.548 139.109H327.175C325.597 139.109 324.305 138.368 324.324 137.463C324.343 136.557 325.616 135.816 327.213 135.816H452.327C453.924 135.816 455.027 136.573 454.817 137.463C454.247 138.566 452.936 139.224 451.548 139.109Z" fill="white"/>
<path d="M259.258 217.493H374.126C375.495 217.493 376.54 218.053 376.445 218.744C376.35 219.435 375.21 219.979 373.841 219.979H259.619C258.25 219.979 257.072 219.419 256.977 218.744C256.881 218.069 257.927 217.493 259.258 217.493Z" fill="white"/>
<path d="M260.246 225.165H436.721C438.052 225.165 439.021 225.708 438.85 226.367C438.679 227.025 437.482 227.569 436.132 227.569H260.55C259.201 227.569 258.041 227.042 257.965 226.367C257.889 225.692 258.896 225.165 260.246 225.165Z" fill="white"/>
<path d="M445.37 128.457H355.536C353.92 128.457 352.666 127.667 352.723 126.712C352.78 125.757 354.129 124.95 355.764 124.95H446.131C447.765 124.95 448.906 125.74 448.697 126.712C448.145 127.864 446.796 128.556 445.37 128.457Z" fill="white"/>
<path opacity="0.5" d="M330.064 128.457H248.328C246.712 128.457 245.286 127.667 245.172 126.712C245.058 125.757 246.256 124.95 247.89 124.95H330.102C331.718 124.95 333.03 125.74 333.011 126.712C332.992 127.683 331.68 128.457 330.064 128.457Z" fill="white"/>
<path opacity="0.5" d="M399.636 217.493C401.004 217.493 402.031 218.053 401.917 218.744C401.803 219.435 400.605 219.979 399.236 219.979H390.416C389.067 219.979 388.04 219.419 388.135 218.744C388.231 218.069 389.409 217.493 390.778 217.493H399.636Z" fill="white"/>
<path opacity="0.5" d="M290.698 210.858C290.698 211.566 289.652 212.142 288.265 212.142H276.175C274.788 212.142 273.609 211.566 273.552 210.858C273.495 210.15 274.559 209.574 275.947 209.574H288.094C289.481 209.574 290.66 210.133 290.698 210.858Z" fill="white"/>
<path opacity="0.5" d="M436.588 176.663C436.417 177.469 435.068 178.128 433.604 178.128H419.462C417.979 178.128 416.914 177.469 417.047 176.663C417.181 175.856 418.53 175.197 420.013 175.197H434.231C435.714 175.197 436.778 175.856 436.588 176.663Z" fill="white"/>
<path opacity="0.5" d="M480.707 184.22C482.171 184.22 483.159 184.862 482.912 185.652C482.304 186.607 481.106 187.15 479.852 187.051H468.58C467.116 187.051 466.128 186.426 466.337 185.652C466.907 184.681 468.123 184.104 469.378 184.22H480.707Z" fill="white"/>
<path opacity="0.5" d="M296.343 159.31C294.823 159.31 293.549 158.602 293.492 157.746C293.435 156.89 294.67 156.099 296.21 156.099H308.205C309.744 156.099 310.999 156.807 311.018 157.746C311.037 158.684 309.801 159.31 308.281 159.31H296.343Z" fill="white"/>
<path d="M132.984 108.618C133.896 110.38 132.984 112.454 130.95 113.261C130.342 113.508 129.657 113.607 128.992 113.557C125.57 113.376 122.605 111.433 121.503 108.618C120.59 106.857 121.503 104.782 123.537 103.975C124.145 103.745 124.791 103.63 125.456 103.679C128.897 103.827 131.881 105.786 132.984 108.618Z" fill="white"/>
<path d="M148.457 108.7C149.293 110.561 148.248 112.668 146.1 113.393C145.529 113.59 144.902 113.672 144.275 113.64C140.891 113.475 137.983 111.499 136.976 108.7C136.139 106.824 137.223 104.716 139.39 103.992C139.941 103.811 140.53 103.728 141.119 103.761C144.522 103.893 147.468 105.869 148.457 108.7Z" fill="white"/>
<path d="M164.101 108.618C164.88 110.577 163.664 112.701 161.421 113.36C160.888 113.524 160.318 113.59 159.748 113.557C156.383 113.426 153.513 111.433 152.62 108.618C151.859 106.659 153.095 104.519 155.357 103.86C155.87 103.712 156.421 103.646 156.954 103.679C160.318 103.794 163.226 105.803 164.101 108.618Z" fill="white"/>
<path opacity="0.1" d="M14.7697 90.6726L65.9977 209.261L127.794 90.6726H14.7697Z" fill="white"/>
<path opacity="0.1" d="M101.202 242.946L203.715 90.6726H311.018L160.147 242.946H101.202Z" fill="white"/>
<path opacity="0.1" d="M357.266 89.9153L197.48 242.946H222.096L387.603 90.6727L357.266 89.9153Z" fill="white"/>
<path opacity="0.1" d="M388.82 242.946L564.421 90.6726H589.208L408.151 242.946H388.82Z" fill="white"/>
<path d="M150.719 309.031H110.63C105.383 309.031 101.125 312.719 101.125 317.263V334.155C101.125 338.699 105.383 342.387 110.63 342.387H121.103L129.049 357.978L140.245 342.387H150.719C155.965 342.387 160.223 338.699 160.223 334.155V317.148C160.147 312.653 155.908 309.031 150.719 309.031Z" fill="white" stroke="#263238" stroke-linecap="round" stroke-linejoin="round"/>
<path d="M125.095 318.695C125.095 317.79 125.951 317.049 126.996 317.049C128.004 317.049 128.821 317.724 128.897 318.58C128.897 319.486 128.042 320.226 126.996 320.226C125.989 320.226 125.171 319.551 125.095 318.695ZM125.513 322.136H128.574V333.43H125.513V322.136Z" fill="#263238"/>
<path d="M135.93 321.544V322.219H139.504V324.342H136.025V333.43H132.965V324.342H130.817V322.219H132.965V321.511C132.775 319.502 134.523 317.74 136.843 317.576C137.109 317.559 137.356 317.576 137.622 317.576C138.591 317.543 139.561 317.757 140.397 318.185L139.542 320.177C139.048 319.881 138.458 319.716 137.85 319.716C136.595 319.716 135.93 320.325 135.93 321.527V321.544Z" fill="#263238"/>
<path d="M272.792 311.385H232.646C227.399 311.385 223.141 315.073 223.141 319.617V336.526C223.141 341.07 227.399 344.757 232.646 344.757H243.138L251.065 360.349L262.261 344.757H272.754C278 344.757 282.258 341.07 282.258 336.526V319.551C282.22 315.04 278 311.402 272.792 311.385Z" fill="white" stroke="#263238" stroke-linecap="round" stroke-linejoin="round"/>
<path d="M241.123 330.994H230.878C231.277 332.706 233.102 333.875 235.117 333.71C236.447 333.76 237.721 333.299 238.652 332.475L240.287 334.122C237.417 336.591 232.779 336.575 229.946 334.089C228.73 333.035 227.988 331.652 227.836 330.171C227.722 327.075 230.536 324.491 234.128 324.392C234.28 324.392 234.432 324.392 234.565 324.392C238.063 324.26 241.028 326.631 241.161 329.66C241.161 329.858 241.161 330.039 241.161 330.236C241.161 330.434 241.161 330.747 241.123 330.994ZM230.859 329.249H238.348C238.158 327.635 236.542 326.417 234.66 326.499C232.741 326.384 231.087 327.602 230.859 329.249Z" fill="#263238"/>
<path d="M244.051 320.111H247.092V335.801H244.051V320.111Z" fill="#263238"/>
<path d="M249.753 334.682L250.913 332.673C252.281 333.397 253.859 333.793 255.456 333.793C257.357 333.793 258.193 333.332 258.193 332.541C258.193 330.385 250.133 332.41 250.133 327.915C250.133 325.775 252.357 324.375 255.836 324.375C257.528 324.359 259.201 324.688 260.721 325.347L259.543 327.355C258.383 326.779 257.072 326.483 255.741 326.516C253.84 326.516 253.004 327.042 253.004 327.783C253.004 330.072 261.063 328.03 261.063 332.459C261.063 334.566 258.82 335.949 255.152 335.949C253.251 335.966 251.388 335.521 249.753 334.682Z" fill="#263238"/>
<path d="M275.928 330.994H265.682C266.082 332.706 267.906 333.875 269.921 333.71C271.252 333.76 272.526 333.299 273.457 332.475L275.092 334.122C272.221 336.591 267.583 336.575 264.751 334.089C263.534 333.035 262.793 331.652 262.641 330.171C262.527 327.075 265.34 324.491 268.933 324.392C269.085 324.392 269.237 324.392 269.37 324.392C272.868 324.26 275.833 326.631 275.966 329.66C275.966 329.858 275.966 330.039 275.966 330.236C275.966 330.434 275.966 330.747 275.928 330.994ZM265.663 329.249H273.058C272.868 327.635 271.252 326.417 269.37 326.499C267.488 326.433 265.873 327.635 265.663 329.249Z" fill="#263238"/>
<path d="M391.139 310.398H351.031C345.822 310.398 341.584 314.036 341.526 318.547V335.455C341.526 339.999 345.784 343.687 351.031 343.687H361.523L369.45 359.278L380.646 343.687H391.139C396.385 343.687 400.643 339.999 400.643 335.455V318.547C400.586 314.036 396.347 310.398 391.139 310.398Z" fill="white" stroke="#263238" stroke-linecap="round" stroke-linejoin="round"/>
<path d="M360.231 322.91V323.585H363.805V325.709H360.307V334.797H357.266V325.709H355.118V323.585H357.266V322.877C357.095 320.869 358.824 319.107 361.143 318.959C361.39 318.942 361.657 318.959 361.904 318.959C362.873 318.909 363.824 319.123 364.66 319.568L363.805 321.56C363.31 321.264 362.74 321.099 362.132 321.099C360.896 321.099 360.231 321.708 360.231 322.91Z" fill="#263238"/>
<path d="M364.603 329.15C364.451 325.824 367.454 323.025 371.294 322.894C375.134 322.762 378.365 325.363 378.517 328.689C378.669 332.014 375.666 334.813 371.826 334.945C371.731 334.945 371.636 334.945 371.541 334.945C367.91 335.126 364.812 332.706 364.603 329.578C364.603 329.43 364.603 329.298 364.603 329.15ZM375.419 329.15C375.267 327.339 373.442 325.972 371.351 326.12C369.26 326.252 367.682 327.833 367.853 329.644C368.005 331.356 369.64 332.689 371.636 332.689C373.727 332.689 375.438 331.224 375.457 329.413C375.457 329.331 375.457 329.249 375.457 329.15H375.419Z" fill="#263238"/>
<path d="M388.953 323.371V325.89C388.725 325.89 388.478 325.89 388.25 325.89C386.292 325.758 384.581 327.026 384.429 328.722C384.41 328.936 384.429 329.166 384.448 329.38V334.863H381.387V323.569H384.296V325.215C385.36 323.931 387.128 323.223 388.953 323.371Z" fill="#263238"/>
<path d="M507.775 309.031H467.667C462.421 309.031 458.163 312.719 458.163 317.263V334.155C458.163 338.699 462.421 342.387 467.667 342.387H478.16L486.086 357.978L497.282 342.387H507.775C513.022 342.387 517.28 338.699 517.28 334.155V317.148C517.203 312.653 512.965 309.031 507.775 309.031Z" fill="white" stroke="#263238" stroke-linecap="round" stroke-linejoin="round"/>
<path d="M482.513 321.576H493.766V323.733H482.513V321.576ZM482.513 326.697H493.766V328.821H482.513V326.697Z" fill="#263238"/>
<path d="M211.85 289.472H171.818C166.572 289.472 162.314 293.16 162.314 297.704V314.596C162.314 319.14 166.572 322.828 171.818 322.828H182.311L190.238 338.419L201.434 322.828H211.926C217.173 322.828 221.431 319.14 221.431 314.596V297.638C221.393 293.094 217.097 289.439 211.85 289.472Z" fill="white" stroke="#263238" stroke-linecap="round" stroke-linejoin="round"/>
<path d="M182.368 296.486H188.204V298.61H185.409V314.168H188.204V316.292H182.368V296.486Z" fill="#263238"/>
<path d="M195.769 316.292V314.168H198.525V298.61H195.769V296.486H201.567V316.242L195.769 316.292Z" fill="#263238"/>
<path d="M331.072 287.743H290.964C285.717 287.743 281.46 291.431 281.46 295.975V312.867C281.46 317.411 285.717 321.099 290.964 321.099H301.456L309.402 336.69L320.598 321.099H331.072C336.318 321.099 340.576 317.411 340.576 312.867V295.909C340.538 291.382 336.299 287.743 331.072 287.743Z" fill="white" stroke="#263238" stroke-linecap="round" stroke-linejoin="round"/>
<path d="M302.863 304.602C303.833 304.866 304.308 305.442 304.308 306.759V310.776C304.156 311.55 304.726 312.291 305.619 312.423C305.809 312.456 306.019 312.456 306.209 312.423H306.722V314.546H305.486C303.509 314.81 301.647 313.624 301.361 311.896C301.323 311.632 301.304 311.352 301.361 311.089V306.743C301.361 306.035 300.943 305.722 300.259 305.722H299.461V303.565H300.259C300.943 303.565 301.361 303.252 301.361 302.544V298.198C301.133 296.469 302.578 294.922 304.574 294.724C304.878 294.691 305.201 294.691 305.505 294.724H306.741V296.848H306.228C305.334 296.716 304.479 297.21 304.327 297.984C304.289 298.149 304.289 298.33 304.327 298.494V302.511C304.327 303.73 303.852 304.306 302.882 304.586L302.863 304.602Z" fill="#263238"/>
<path d="M321.492 303.516V305.623H320.655C319.99 305.623 319.572 305.936 319.572 306.644V310.99C319.8 312.719 318.355 314.267 316.359 314.464C316.036 314.497 315.713 314.497 315.409 314.448H314.173V312.373H314.686C315.58 312.505 316.435 311.978 316.587 311.188C316.625 311.04 316.625 310.875 316.587 310.727V306.71C316.587 305.393 317.024 304.816 317.994 304.553C317.024 304.273 316.587 303.697 316.587 302.38V298.363C316.739 297.589 316.131 296.848 315.219 296.716C315.048 296.683 314.858 296.683 314.686 296.716H314.173V294.592H315.409C317.386 294.329 319.249 295.498 319.553 297.227C319.61 297.506 319.61 297.786 319.572 298.05V302.396C319.572 303.104 319.99 303.417 320.655 303.417L321.492 303.516Z" fill="#263238"/>
<path d="M449.039 284.319H408.931C403.684 284.319 399.427 288.007 399.427 292.551V309.443C399.427 313.987 403.684 317.675 408.931 317.675H419.405L427.35 333.266L438.546 317.675H449.039C454.285 317.675 458.543 313.987 458.543 309.443V292.452C458.486 287.941 454.247 284.319 449.039 284.319Z" fill="white" stroke="#263238" stroke-linecap="round" stroke-linejoin="round"/>
<path d="M427.388 296.831C427.274 295.877 428.091 295.02 429.194 294.922C430.296 294.823 431.285 295.531 431.399 296.486C431.399 296.601 431.399 296.716 431.399 296.831C431.513 297.786 430.696 298.642 429.593 298.741C428.491 298.84 427.502 298.132 427.388 297.177C427.388 297.062 427.388 296.947 427.388 296.831ZM431.399 304.882C431.342 305.524 431.152 306.134 430.829 306.71L429.574 309.69H427.673L428.662 306.397C427.939 306.133 427.483 305.508 427.502 304.833C427.502 303.878 428.396 303.121 429.479 303.121C430.563 303.121 431.475 303.894 431.475 304.833L431.399 304.882Z" fill="#263238"/>
<path d="M292.256 579.744H332.345C337.592 579.744 341.85 576.056 341.85 571.512V554.686C341.85 550.142 337.592 546.455 332.345 546.455H321.872L318.811 530.863L302.73 546.455H292.256C287.01 546.455 282.752 550.142 282.752 554.686V571.578C282.79 576.106 287.029 579.744 292.256 579.744Z" fill="white" stroke="#263238" stroke-linecap="round" stroke-linejoin="round"/>
<path d="M306.342 559.659L297.921 562.457L306.342 565.174V567.396L295.089 563.61V561.321L306.342 557.535V559.659Z" fill="#263238"/>
<path d="M315.238 551.97H317.956L309.896 571.907H307.178L315.238 551.97Z" fill="#263238"/>
<path d="M329.798 561.239V563.527L318.545 567.314V565.108L326.966 562.391L318.545 559.658V557.518L329.798 561.239Z" fill="#263238"/>
<path d="M37.3138 456.678H77.4028C82.6111 456.678 86.85 453.039 86.9071 448.528V431.62C86.9071 427.076 82.6492 423.388 77.4028 423.388H66.9291L69.2101 407.797L47.7875 423.388H37.3138C32.0674 423.388 27.8095 427.076 27.8095 431.62V448.528C27.8665 453.039 32.1054 456.678 37.3138 456.678Z" fill="white" stroke="#263238" stroke-linecap="round" stroke-linejoin="round"/>
<path d="M49.1941 445.976C49.1941 445.071 50.0495 444.33 51.095 444.33C52.1404 444.33 52.9958 445.071 52.9958 445.976C52.9958 446.882 52.1404 447.623 51.095 447.623C50.0495 447.623 49.1941 446.882 49.1941 445.976ZM49.3652 432.657H52.9768L52.3685 442.535H49.9545L49.3652 432.657Z" fill="#263238"/>
<path d="M56.1322 436.444H67.3853V438.568H56.1322V436.444ZM56.1322 441.564H67.3853V443.688H56.1322V441.564Z" fill="#263238"/>
<path d="M679.346 437.531C679.346 444.067 678.7 450.603 677.446 457.056C671.933 485.555 654.635 506.332 634.182 506.332C632.357 506.332 630.532 506.168 628.746 505.839C606.411 501.739 589.094 472.73 589.094 437.531C589.094 399.532 609.281 386.081 634.182 386.081C659.083 386.081 679.346 399.466 679.346 437.531Z" fill="white"/>
<mask id="mask2_29_426" style="mask-type:luminance" maskUnits="userSpaceOnUse" x="589" y="386" width="91" height="121">
<path d="M679.346 437.531C679.346 444.067 678.7 450.603 677.446 457.056C671.933 485.555 654.635 506.332 634.182 506.332C632.357 506.332 630.532 506.168 628.746 505.839C606.411 501.739 589.094 472.73 589.094 437.531C589.094 399.532 609.281 386.081 634.182 386.081C659.083 386.081 679.346 399.466 679.346 437.531Z" fill="white"/>
</mask>
<g mask="url(#mask2_29_426)">
<path d="M663.056 437.959C664.729 458.341 660.699 478.822 653.913 498.397C670.907 486.313 678.719 467.313 685.79 449.286C690.923 436.197 696.112 422.697 695.18 408.9C694.249 395.103 685.676 380.731 670.773 375.973C663.303 373.635 655.091 373.75 647.716 376.285C635.189 380.648 642.014 384.172 647.317 391.975C656.536 406.068 661.916 421.791 663.056 437.959Z" fill="#BEBEBE"/>
<path opacity="0.5" d="M663.056 437.959C664.729 458.341 660.699 478.822 653.913 498.397C670.907 486.313 678.719 467.313 685.79 449.286C690.923 436.197 696.112 422.697 695.18 408.9C694.249 395.103 685.676 380.731 670.773 375.973C663.303 373.635 655.091 373.75 647.716 376.285C635.189 380.648 642.014 384.172 647.317 391.975C656.536 406.068 661.916 421.791 663.056 437.959Z" fill="white"/>
</g>
<path d="M679.346 437.531C679.346 444.067 678.7 450.603 677.446 457.056C671.933 485.555 654.635 506.332 634.182 506.332C632.357 506.332 630.532 506.168 628.746 505.839C606.411 501.739 589.094 472.73 589.094 437.531C589.094 399.532 609.281 386.081 634.182 386.081C659.083 386.081 679.346 399.466 679.346 437.531Z" stroke="#263238" stroke-miterlimit="10"/>
<path d="M658.532 472.483C655.529 481.291 650.491 489.457 643.724 496.52L658.532 472.483Z" fill="white"/>
<path d="M658.532 472.483C655.529 481.291 650.491 489.457 643.724 496.52" stroke="#263238" stroke-miterlimit="10"/>
<path d="M659.958 467.709C659.73 468.631 659.463 469.552 659.178 470.474" stroke="#263238" stroke-miterlimit="10"/>
<path d="M659.844 437.432C662.22 446.223 662.524 455.344 660.737 464.235L659.844 437.432Z" fill="white"/>
<path d="M659.844 437.432C662.22 446.223 662.524 455.344 660.737 464.235" stroke="#263238" stroke-miterlimit="10"/>
<path d="M589.189 437.531C589.189 437.531 640.512 419.98 679.403 437.531" stroke="#263238" stroke-miterlimit="10"/>
<path d="M634.296 386.081C634.296 386.081 639.428 402.545 639.999 429.332L634.296 386.081Z" fill="white"/>
<path d="M634.296 386.081C634.296 386.081 639.428 402.545 639.999 429.332" stroke="#263238" stroke-miterlimit="10"/>
<path d="M641.462 406.052C642.109 411.172 641.082 415.519 639.162 415.782C637.242 416.045 635.151 412.111 634.505 407.007C633.859 401.903 634.866 397.524 636.786 397.26C638.706 396.997 640.797 400.997 641.462 406.052Z" fill="#BFBFBF" stroke="#263238" stroke-linecap="round" stroke-linejoin="round"/>
<path d="M614.071 519.503H553.89C546.515 519.503 540.261 514.795 539.272 508.456C539.139 507.88 539.082 507.287 539.101 506.695V383.892C539.101 383.299 539.158 382.706 539.272 382.114C540.261 375.775 546.515 371.066 553.89 371.083H724.435C726.925 371.083 729.358 371.659 731.525 372.729" stroke="#263238" stroke-miterlimit="10"/>
</svg>
