<svg width="360" height="299" viewBox="0 0 360 299" fill="none" xmlns="http://www.w3.org/2000/svg">
<path d="M34.0048 294.182H335.84C340.793 288.257 369.613 250.761 356.702 193.775C342.595 131.573 334.293 130.704 272.06 91.7008C209.827 52.6974 188.312 19.5074 116.916 46.0626C45.52 72.6177 43.0639 122.411 46.3653 162.235C49.6668 202.06 4.10034 232.77 1.57241 257.667C-0.429193 277.651 16.8596 290.673 34.0048 294.182Z" fill="white"/>
<path d="M55.7754 81.0946C77.7964 81.0946 95.648 63.243 95.648 41.222C95.648 19.2009 77.7964 1.34937 55.7754 1.34937C33.7543 1.34937 15.9028 19.2009 15.9028 41.222C15.9028 63.243 33.7543 81.0946 55.7754 81.0946Z" stroke="white" stroke-miterlimit="10"/>
<path d="M55.7753 77.1073C75.5942 77.1073 91.6606 61.0409 91.6606 41.222C91.6606 21.403 75.5942 5.33661 55.7753 5.33661C35.9564 5.33661 19.89 21.403 19.89 41.222C19.89 61.0409 35.9564 77.1073 55.7753 77.1073Z" stroke="white" stroke-miterlimit="10"/>
<path d="M41.812 50.1773L55.7753 41.2219L40.7753 16.6843" stroke="white" stroke-miterlimit="10"/>
<path d="M263.448 279.206V276.742L265.346 276.343L263.448 275.864V275.187L265.162 274.389L263.448 273.879V263.751H261.359V261.67L262.324 261.59L261.359 261.135V260.338L263.751 260.689L262.156 258.735L261.359 257.563V257.116L263.918 256.957C263.918 256.957 262.467 256.072 261.359 255.274V246.837H263.918C263.918 246.837 262.507 246.167 261.359 245.593V242.459H202.897V247.571L200.274 248.615L202.873 249.772V250.37C202.076 250.832 200.696 251.67 200.481 252.172C200.13 252.882 199.413 254.477 199.413 254.477C199.413 254.477 201.191 254.126 201.725 253.942C202.124 253.863 202.539 253.918 202.905 254.094V254.19L200.832 256.255L202.897 257.164V264.174H207.491V264.66C207.164 264.74 206.837 264.844 206.518 264.963C205.473 265.49 204.46 266.088 203.495 266.742L206.159 266.566L204.915 268.52L207.491 268.679V278.368H201.645V281.893C201.231 281.981 200.832 282.148 200.473 282.38C200.058 282.683 199.676 283.026 199.333 283.408C198.535 284.262 197.81 285.226 197.81 285.226L200.832 284.333L199.237 286.471L200.481 286.821L199.413 288.416L201.653 288.576V292.14H260.083V289.748L262.124 289.828L261.406 289.477L263.185 288.943L261.406 287.164L260.88 285.035L260.083 284.9V279.19L263.448 279.206Z" fill="#B5B5B5"/>
<path d="M205.449 247.906H240.992" stroke="black" stroke-miterlimit="10"/>
<path d="M205.808 250.928H226.063" stroke="black" stroke-miterlimit="10"/>
<path d="M256.638 255.186H221.087" stroke="black" stroke-miterlimit="10"/>
<path d="M209.181 264.253H257.172" stroke="black" stroke-miterlimit="10"/>
<path d="M208.296 258.033H243.129" stroke="black" stroke-miterlimit="10"/>
<path d="M258.057 267.81H232.467" stroke="black" stroke-miterlimit="10"/>
<path d="M256.988 272.611H210.074" stroke="black" stroke-miterlimit="10"/>
<path d="M219.309 276.694H247.036" stroke="black" stroke-miterlimit="10"/>
<path d="M258.416 279.182H212.203" stroke="black" stroke-miterlimit="10"/>
<path d="M205.274 285.761H238.687" stroke="black" stroke-miterlimit="10"/>
<path d="M235.489 282.38H210.959" stroke="black" stroke-miterlimit="10"/>
<path d="M214.692 287.714H250.234" stroke="black" stroke-miterlimit="10"/>
<path d="M255.569 282.029H245.968" stroke="black" stroke-miterlimit="10"/>
<path d="M279.397 229.469V227.004L281.295 226.606L279.397 226.127V225.449L281.111 224.652L279.397 224.134V213.99H277.308V211.909L278.272 211.829L277.308 211.374V210.577L279.7 210.936L278.105 208.974L277.308 207.802V207.363L279.867 207.204C279.867 207.204 278.416 206.311 277.308 205.513V197.1H279.867C279.867 197.1 278.456 196.43 277.308 195.864V192.722H218.846V197.842L216.247 198.878L218.846 200.035V200.633C218.049 201.095 216.669 201.94 216.454 202.435C216.103 203.145 215.385 204.748 215.385 204.748C215.385 204.748 217.164 204.389 217.698 204.213C218.097 204.125 218.511 204.173 218.878 204.357V204.421L216.813 206.486L218.878 207.395V214.405H223.472V214.899C223.137 214.971 222.818 215.075 222.499 215.202C221.454 215.728 220.441 216.319 219.476 216.972L222.14 216.797L220.864 218.775L223.44 218.934V228.623H217.594V232.156C217.172 232.236 216.773 232.403 216.422 232.642C216.007 232.945 215.625 233.288 215.282 233.663C214.484 234.516 213.759 235.481 213.759 235.481L216.781 234.596L215.186 236.725L216.43 237.084L215.361 238.679L217.602 238.839V242.403H276.032V240.011L278.073 240.099L277.355 239.74L279.134 239.205L277.355 237.427L276.829 235.298L276.032 235.162V229.453L279.397 229.469Z" fill="#B5B5B5"/>
<path d="M221.398 198.169H256.941" stroke="black" stroke-miterlimit="10"/>
<path d="M221.757 201.191H242.012" stroke="black" stroke-miterlimit="10"/>
<path d="M272.587 205.457H237.036" stroke="black" stroke-miterlimit="10"/>
<path d="M225.13 214.516H273.121" stroke="black" stroke-miterlimit="10"/>
<path d="M224.245 208.296H259.078" stroke="black" stroke-miterlimit="10"/>
<path d="M274.006 218.073H248.416" stroke="black" stroke-miterlimit="10"/>
<path d="M272.937 222.874H226.023" stroke="black" stroke-miterlimit="10"/>
<path d="M235.258 226.956H262.985" stroke="black" stroke-miterlimit="10"/>
<path d="M274.365 229.445H228.153" stroke="black" stroke-miterlimit="10"/>
<path d="M221.223 236.024H254.636" stroke="black" stroke-miterlimit="10"/>
<path d="M251.438 232.65H226.909" stroke="black" stroke-miterlimit="10"/>
<path d="M230.641 237.977H266.183" stroke="black" stroke-miterlimit="10"/>
<path d="M271.518 232.292H261.917" stroke="black" stroke-miterlimit="10"/>
<path d="M316.821 279.206V276.742L318.719 276.343L316.821 275.864V275.187L318.544 274.389L316.821 273.879V263.751H314.732V261.67L315.697 261.59L314.732 261.135V260.338L317.124 260.689L315.53 258.735L314.732 257.563V257.116L317.3 256.957C317.3 256.957 315.848 256.072 314.732 255.274V246.837H317.3C317.3 246.837 315.88 246.167 314.732 245.593V242.459H256.271V247.571L253.703 248.615L256.303 249.772V250.37C255.505 250.832 254.134 251.67 253.91 252.172C253.559 252.882 252.85 254.477 252.85 254.477C252.85 254.477 254.628 254.126 255.154 253.942C255.553 253.863 255.968 253.918 256.335 254.094V254.19L254.205 256.255L256.271 257.164V264.174H260.88V264.66C260.553 264.74 260.226 264.844 259.907 264.963C258.863 265.49 257.858 266.088 256.885 266.742L259.556 266.566L258.312 268.52L260.88 268.679V278.368H255.035V281.893C254.62 281.981 254.221 282.148 253.863 282.38C253.448 282.683 253.065 283.026 252.722 283.408C251.925 284.262 251.199 285.226 251.199 285.226L254.221 284.333L252.626 286.471L253.871 286.821L252.81 288.416L255.043 288.576V292.14H313.512V289.748L315.553 289.828L314.844 289.477L316.622 288.943L314.844 287.164L314.309 285.035L313.512 284.9V279.19L316.821 279.206Z" fill="#B5B5B5" stroke="black" stroke-miterlimit="10"/>
<path d="M258.823 247.906H294.373" stroke="black" stroke-miterlimit="10"/>
<path d="M259.181 250.928H279.445" stroke="black" stroke-miterlimit="10"/>
<path d="M310.011 255.186H274.469" stroke="black" stroke-miterlimit="10"/>
<path d="M262.563 264.253H310.545" stroke="black" stroke-miterlimit="10"/>
<path d="M261.669 258.033H296.502" stroke="black" stroke-miterlimit="10"/>
<path d="M311.431 267.81H285.84" stroke="black" stroke-miterlimit="10"/>
<path d="M310.37 272.611H263.448" stroke="black" stroke-miterlimit="10"/>
<path d="M272.69 276.694H300.418" stroke="black" stroke-miterlimit="10"/>
<path d="M311.789 279.182H265.577" stroke="black" stroke-miterlimit="10"/>
<path d="M258.647 285.761H292.06" stroke="black" stroke-miterlimit="10"/>
<path d="M288.863 282.38H264.333" stroke="black" stroke-miterlimit="10"/>
<path d="M268.065 287.714H303.616" stroke="black" stroke-miterlimit="10"/>
<path d="M308.942 282.029H299.349" stroke="black" stroke-miterlimit="10"/>
<path d="M331.494 279.206V276.742L333.392 276.343L331.494 275.864V275.187L333.217 274.389L331.494 273.879V263.751H329.405V261.67L330.37 261.59L329.405 261.135V260.338L331.797 260.689L330.203 258.735L329.405 257.563V257.116L331.973 256.957C331.973 256.957 330.522 256.072 329.405 255.274V246.837H331.973C331.973 246.837 330.553 246.167 329.405 245.593V242.459H270.944V247.571L268.344 248.615L270.944 249.772V250.37C270.146 250.832 268.775 251.67 268.552 252.172C268.201 252.882 267.491 254.477 267.491 254.477C267.491 254.477 269.269 254.126 269.796 253.942C270.194 253.863 270.609 253.918 270.976 254.094V254.19L268.855 256.255L270.92 257.164V264.174H275.513V264.66C275.186 264.74 274.859 264.844 274.54 264.963C273.496 265.49 272.491 266.088 271.518 266.742L274.189 266.566L272.945 268.52L275.513 268.679V278.368H269.668V281.893C269.253 281.981 268.855 282.148 268.496 282.38C268.081 282.683 267.698 283.026 267.355 283.408C266.558 284.262 265.832 285.226 265.832 285.226L268.855 284.333L267.26 286.471L268.504 286.821L267.443 288.416L269.676 288.576V292.14H328.137V289.748L330.179 289.828L329.469 289.477L331.247 288.943L329.461 287.18L328.927 285.051L328.129 284.915V279.206H331.494Z" fill="white" stroke="black" stroke-miterlimit="10"/>
<path d="M273.496 247.906H309.046" stroke="black" stroke-miterlimit="10"/>
<path d="M273.855 250.928H294.118" stroke="black" stroke-miterlimit="10"/>
<path d="M324.684 255.186H289.142" stroke="black" stroke-miterlimit="10"/>
<path d="M277.228 264.253H325.218" stroke="black" stroke-miterlimit="10"/>
<path d="M276.343 258.033H311.175" stroke="black" stroke-miterlimit="10"/>
<path d="M326.104 267.81H300.513" stroke="black" stroke-miterlimit="10"/>
<path d="M325.043 272.611H278.121" stroke="black" stroke-miterlimit="10"/>
<path d="M287.363 276.694H315.091" stroke="black" stroke-miterlimit="10"/>
<path d="M326.462 279.182H280.25" stroke="black" stroke-miterlimit="10"/>
<path d="M273.32 285.761H306.734" stroke="black" stroke-miterlimit="10"/>
<path d="M303.536 282.38H279.006" stroke="black" stroke-miterlimit="10"/>
<path d="M282.738 287.714H318.289" stroke="black" stroke-miterlimit="10"/>
<path d="M323.616 282.029H314.022" stroke="black" stroke-miterlimit="10"/>
<path d="M331.494 230.29V227.826L333.392 227.427L331.494 226.957V226.279L333.217 225.481L331.494 224.963V214.843H329.405V212.754L330.37 212.674L329.405 212.22V211.422L331.797 211.773L330.202 209.819L329.405 208.639V208.2L331.973 208.041C331.973 208.041 330.521 207.156 329.405 206.358V197.929H331.973C331.973 197.929 330.553 197.251 329.405 196.685V193.543H270.944V198.663L268.344 199.7L270.944 200.864V201.462C270.146 201.925 268.775 202.762 268.551 203.256C268.201 203.966 267.491 205.569 267.491 205.569C267.491 205.569 269.269 205.21 269.795 205.035C270.194 204.955 270.609 205.011 270.976 205.186V205.274L268.91 207.347L270.976 208.248V215.258H275.569V215.752C275.242 215.832 274.915 215.936 274.596 216.055C273.551 216.582 272.539 217.172 271.574 217.834L274.245 217.65L273.001 219.612L275.569 219.771V229.461H269.724V232.985C269.309 233.073 268.91 233.24 268.551 233.472C268.137 233.775 267.754 234.118 267.411 234.5C266.877 235.083 266.366 235.689 265.888 236.319L268.91 235.425L267.315 237.563L268.559 237.914L267.499 239.508L269.732 239.668V243.233H328.193V240.84L330.234 240.92L329.525 240.561L331.303 240.035L329.461 238.272L328.927 236.135L328.129 236.008V230.29H331.494Z" fill="white" stroke="black" stroke-miterlimit="10"/>
<path d="M273.496 198.99H309.046" stroke="black" stroke-miterlimit="10"/>
<path d="M273.855 202.012H294.118" stroke="black" stroke-miterlimit="10"/>
<path d="M324.684 206.279H289.142" stroke="black" stroke-miterlimit="10"/>
<path d="M277.228 215.346H325.218" stroke="black" stroke-miterlimit="10"/>
<path d="M276.343 209.125H311.175" stroke="black" stroke-miterlimit="10"/>
<path d="M326.104 218.894H300.513" stroke="black" stroke-miterlimit="10"/>
<path d="M325.043 223.695H278.121" stroke="black" stroke-miterlimit="10"/>
<path d="M287.363 227.786H315.091" stroke="black" stroke-miterlimit="10"/>
<path d="M326.462 230.274H280.25" stroke="black" stroke-miterlimit="10"/>
<path d="M273.32 236.845H306.734" stroke="black" stroke-miterlimit="10"/>
<path d="M303.536 233.472H279.006" stroke="black" stroke-miterlimit="10"/>
<path d="M282.738 238.807H318.289" stroke="black" stroke-miterlimit="10"/>
<path d="M323.616 233.113H314.022" stroke="black" stroke-miterlimit="10"/>
<path d="M226.797 291.279H158.615V287.643L226.797 284.015V291.279Z" fill="white" stroke="black" stroke-miterlimit="10"/>
<path d="M265.665 277.786L248.121 234.293L245.154 235.497V236.207L262.475 279.062C263.839 282.459 262.188 286.319 258.791 287.675C258.009 287.986 257.164 288.153 256.319 288.153H233.328V291.622H256.319C261.901 291.59 266.406 287.037 266.375 281.455C266.375 280.195 266.127 278.951 265.665 277.786Z" fill="white" stroke="black" stroke-miterlimit="10"/>
<path d="M251.3 173.601L239.049 275.13L244.465 275.784L256.715 174.255L251.3 173.601Z" fill="white" stroke="black" stroke-miterlimit="10"/>
<path d="M233.902 291.343H204.396V287.874C204.396 284.118 207.235 280.968 210.975 280.586L225.864 279.078C229.883 278.672 233.48 281.606 233.878 285.625C233.902 285.865 233.918 286.112 233.918 286.359L233.902 291.343Z" fill="white" stroke="black" stroke-miterlimit="10"/>
<path d="M147.187 159.708C147.187 159.708 150.832 164.668 151.821 168.974C152.809 173.28 150.17 177.905 151.159 181.55C152.148 185.194 156.789 188.496 156.454 190.816C156.119 193.137 149.508 196.773 149.508 196.773C149.508 196.773 143.878 210.33 141.533 211.335C139.189 212.339 131.302 210.003 127.706 208.36C124.109 206.717 119.428 207.036 119.428 207.036L97.8968 196.111C97.8968 196.111 100.217 191.805 97.5699 185.521C94.9223 179.237 93.5826 168.639 109.811 158.049C126.039 147.459 147.187 159.708 147.187 159.708Z" fill="white" stroke="#263238" stroke-miterlimit="10"/>
<path d="M109.125 186.183C109.125 186.183 102.841 193.137 99.1966 193.137C95.5522 193.137 88.6064 188.495 85.297 183.567C81.9876 178.639 88.6064 166.023 92.2508 158.743C95.8951 151.462 102.506 139.213 116.079 136.565C129.651 133.918 134.946 134.915 146.525 140.872C158.104 146.829 156.789 155.433 154.803 158.081C153.344 159.923 151.677 161.589 149.835 163.049C149.835 163.049 157.116 159.062 159.763 160.401C162.411 161.741 162.419 163.376 162.419 163.376C162.419 163.376 154.141 163.711 153.144 163.711C152.147 163.711 148.846 165.361 148.846 165.361C148.846 165.361 141.892 167.02 138.256 166.023C134.619 165.026 129.651 161.358 129.3 165.345C128.95 169.333 124.005 176.271 122.02 176.932C120.034 177.594 117.052 177.921 114.404 179.907C111.756 181.893 109.125 186.183 109.125 186.183Z" fill="black"/>
<path d="M116.741 183.2C116.741 183.2 112.107 173.631 107.474 177.578C102.841 181.526 107.801 191.805 109.787 192.802C111.772 193.799 115.744 191.143 115.744 191.143C115.744 191.143 116.079 195.449 117.402 197.435" fill="white"/>
<path d="M116.741 183.2C116.741 183.2 112.107 173.631 107.474 177.578C102.841 181.526 107.801 191.805 109.787 192.802C111.772 193.799 115.744 191.143 115.744 191.143C115.744 191.143 116.079 195.449 117.402 197.435" stroke="#263238" stroke-miterlimit="10"/>
<path d="M90.2652 207.036C90.2652 207.036 95.8474 201.406 95.8474 197.77C95.8474 194.133 97.833 191.143 110.409 197.108C122.985 203.073 127.331 210.003 124.683 211.996C122.036 213.99 116.406 215.984 115.114 217.291C113.822 218.599 109.157 224.907 109.157 224.907C109.157 224.907 101.182 207.036 90.2652 207.036Z" fill="#CCCCCC" stroke="black" stroke-miterlimit="10"/>
<path d="M103.973 195.154C103.973 195.154 101.166 195.72 101.732 197.682C102.067 198.87 102.067 200.13 101.732 201.319L100.05 203.846" fill="#CCCCCC"/>
<path d="M103.973 195.154C103.973 195.154 101.166 195.72 101.732 197.682C102.067 198.87 102.067 200.13 101.732 201.319L100.05 203.846" stroke="black" stroke-miterlimit="10"/>
<path d="M110.449 197.108C110.449 197.108 107.331 200.481 107.61 201.598C107.889 202.714 108.455 204.405 107.331 204.963C106.334 205.41 105.305 205.784 104.253 206.087" fill="#CCCCCC"/>
<path d="M110.449 197.108C110.449 197.108 107.331 200.481 107.61 201.598C107.889 202.714 108.455 204.405 107.331 204.963C106.334 205.41 105.305 205.784 104.253 206.087" stroke="black" stroke-miterlimit="10"/>
<path d="M111.533 210.099C110.951 210.952 110.417 211.694 110.417 211.694L111.533 210.099Z" fill="#CCCCCC"/>
<path d="M111.533 210.099C110.951 210.952 110.417 211.694 110.417 211.694" stroke="black" stroke-miterlimit="10"/>
<path d="M116.302 201.04C116.302 201.04 116.86 203.559 115.736 205.242C114.611 206.925 113.216 206.925 112.937 207.762" fill="#CCCCCC"/>
<path d="M116.302 201.04C116.302 201.04 116.86 203.559 115.736 205.242C114.611 206.925 113.216 206.925 112.937 207.762" stroke="black" stroke-miterlimit="10"/>
<path d="M122.466 205.521C121.948 206.98 121.294 208.392 120.504 209.724C119.659 210.848 116.581 210.569 116.015 211.965C115.464 213.041 114.699 213.998 113.774 214.772" fill="#CCCCCC"/>
<path d="M122.466 205.521C121.948 206.98 121.294 208.392 120.504 209.724C119.659 210.848 116.581 210.569 116.015 211.965C115.464 213.041 114.699 213.998 113.774 214.772" stroke="black" stroke-miterlimit="10"/>
<path d="M186.861 258.145C184.396 257.164 177.498 256.175 177.498 256.175" stroke="#263238" stroke-miterlimit="10"/>
<path d="M174.54 255.187C174.54 255.187 179.963 253.711 183.408 255.187" stroke="#263238" stroke-miterlimit="10"/>
<path d="M185.76 266.622C185.76 266.622 188.687 271.67 189.484 273.265C190.282 274.86 190.545 275.657 189.747 275.657C188.95 275.657 186.023 274.333 185.76 272.738C185.648 271.893 185.385 271.088 184.963 270.346C184.963 270.346 186.462 276.191 186.023 276.455C184.293 277.515 183.105 275.657 183.105 275.657L180.975 269.278C180.975 269.278 180.178 272.467 179.915 273.265C179.652 274.062 178.049 271.941 178.049 270.346C178.073 269.102 178.168 267.858 178.32 266.622L176.725 265.29C176.725 265.29 179.117 262.898 181.773 262.898C184.428 262.898 185.76 266.622 185.76 266.622Z" fill="white" stroke="#263238" stroke-miterlimit="10"/>
<path d="M144.827 258.647L145.863 258.576C150.449 258.273 168.647 257.053 169.787 257.053C171.119 257.053 178.822 261.303 178.822 261.303C181.215 261.159 183.623 261.247 185.999 261.574C188.663 262.1 191.055 265.29 192.116 266.359C193.176 267.427 196.637 268.751 194.771 269.277C192.905 269.804 192.116 270.075 191.055 269.812C189.994 269.549 185.736 266.622 185.736 266.622L178.822 265.561C178.822 265.561 172.443 269.014 171.645 269.277C170.848 269.541 172.714 271.407 174.572 272.738C176.43 274.07 179.356 275.928 179.093 278.049C178.83 280.171 178.025 279.916 175.904 278.049C173.782 276.183 171.645 275.131 168.455 273.002C165.545 270.904 162.785 268.592 160.218 266.088L158.623 264.493C158.623 264.493 140.018 270.609 133.639 272.467C127.801 274.11 121.852 275.354 115.847 276.191C111.86 276.726 104.157 275.131 102.028 273.536C99.8983 271.941 94.3162 266.885 94.3162 266.885L103.886 247.746C103.886 247.746 115.321 258.384 119.835 259.445C124.348 260.505 144.827 258.647 144.827 258.647Z" fill="white" stroke="#263238" stroke-miterlimit="10"/>
<path d="M119.835 259.445C115.321 258.384 103.886 247.746 103.886 247.746L94.3162 266.885C94.3162 266.885 99.8983 271.941 102.028 273.536C104.157 275.131 111.86 276.726 115.847 276.191C121.302 275.426 126.709 274.341 132.028 272.922C132.171 271.702 132.283 270.394 132.331 269.014C132.434 266 132.331 262.587 132.179 259.549C127.044 259.844 121.852 259.947 119.835 259.445Z" fill="#B2B2B2" stroke="#263238" stroke-miterlimit="10"/>
<path d="M113.216 228.017C113.192 222.515 111.453 217.164 108.248 212.698C106.709 210.441 104.619 208.599 102.179 207.363C91.1264 202.339 83.3592 205.984 76.3576 215.338C62.458 233.879 52.9524 255.896 49.2442 264.987C41.4212 283.935 39.9858 290.769 39.9858 290.769H92.2827C92.2827 290.769 89.6352 284.15 89.6352 282.499C89.6352 280.849 92.2827 277.531 92.2827 277.531C92.2827 277.531 108.168 271.901 111.142 263.297C113.304 256.965 113.351 237.738 113.216 228.017Z" fill="#CCCCCC" stroke="black" stroke-miterlimit="10"/>
<path d="M190.306 232.523C194.508 233.368 198.639 234.516 202.666 235.976" stroke="#263238" stroke-miterlimit="10"/>
<path d="M198.192 231.048C201.199 232.292 204.022 233.95 206.573 235.976" stroke="#263238" stroke-miterlimit="10"/>
<path d="M79.3401 241.454C79.3401 241.454 95.5603 285.809 99.8585 287.132C104.157 288.456 108.463 286.471 110.449 285.147C112.434 283.823 170.026 243.113 170.026 243.113C170.026 243.113 180.29 249.078 182.275 249.078C184.261 249.078 188.232 255.035 189.221 257.053C190.21 259.07 191.207 260.027 191.542 258.041C191.877 256.056 189.221 251.757 188.559 250.434C188.176 249.684 187.849 248.911 187.57 248.113C188.719 248.265 189.835 248.6 190.88 249.11C191.869 249.772 195.178 254.07 196.175 255.394C197.172 256.718 199.484 258.041 199.484 256.056C199.484 254.07 195.84 250.434 195.178 248.775C194.795 247.802 194.093 246.989 193.192 246.462C193.192 246.462 199.484 247.451 201.167 248.113C202.849 248.775 203.822 252.746 205.808 253.081C207.794 253.416 204.811 249.094 204.149 247.124C203.487 245.155 195.21 242.491 195.21 242.491C195.21 242.491 200.505 241.829 202.164 241.829C203.822 241.829 207.451 245.091 208.424 245.091C209.397 245.091 209.413 244.094 206.765 242.108C204.117 240.123 199.484 238.121 197.499 238.121C195.497 238.065 193.503 237.842 191.542 237.459C189.556 237.132 174.66 234.15 171.685 234.15C168.711 234.15 124.021 255.003 124.021 255.003L121.127 252.427C121.071 252.379 120.999 252.348 120.927 252.34L120.441 252.284C118.774 252.14 117.107 252.611 115.76 253.608C115.52 253.767 115.281 253.743 115.082 253.344C114.42 252.021 110.122 225.545 107.801 219.915C105.481 214.285 98.2317 201.717 85.632 208.998" fill="white"/>
<path d="M79.3401 241.454C79.3401 241.454 95.5603 285.809 99.8585 287.132C104.157 288.456 108.463 286.471 110.449 285.147C112.434 283.823 170.026 243.113 170.026 243.113C170.026 243.113 180.29 249.078 182.275 249.078C184.261 249.078 188.232 255.035 189.221 257.053C190.21 259.07 191.207 260.027 191.542 258.041C191.877 256.056 189.221 251.757 188.559 250.434C188.176 249.684 187.849 248.911 187.57 248.113C188.719 248.265 189.835 248.6 190.88 249.11C191.869 249.772 195.178 254.07 196.175 255.394C197.172 256.718 199.484 258.041 199.484 256.056C199.484 254.07 195.84 250.434 195.178 248.775C194.795 247.802 194.093 246.989 193.192 246.462C193.192 246.462 199.484 247.451 201.167 248.113C202.849 248.775 203.822 252.746 205.808 253.081C207.794 253.416 204.811 249.094 204.149 247.124C203.487 245.155 195.21 242.491 195.21 242.491C195.21 242.491 200.505 241.829 202.164 241.829C203.822 241.829 207.451 245.091 208.424 245.091C209.397 245.091 209.413 244.094 206.765 242.108C204.117 240.123 199.484 238.121 197.499 238.121C195.497 238.065 193.503 237.842 191.542 237.459C189.556 237.132 174.66 234.15 171.685 234.15C168.711 234.15 124.021 255.003 124.021 255.003L121.127 252.427C121.071 252.379 120.999 252.348 120.927 252.34L120.441 252.284C118.774 252.14 117.107 252.611 115.76 253.608C115.52 253.767 115.281 253.743 115.082 253.344C114.42 252.021 110.122 225.545 107.801 219.915C105.481 214.285 98.2317 201.717 85.632 208.998" stroke="#263238" stroke-miterlimit="10"/>
<path d="M79.3401 241.454C79.3401 241.454 95.5603 285.809 99.8585 287.132C104.157 288.456 108.463 286.471 110.449 285.147C111.501 284.445 127.993 272.794 143.383 261.933L137.658 248.727C129.962 252.252 124.021 255.027 124.021 255.027L121.127 252.451C121.071 252.403 120.999 252.371 120.927 252.364L120.441 252.308C118.774 252.164 117.107 252.635 115.76 253.631C115.52 253.791 115.281 253.767 115.082 253.368C114.42 252.045 110.122 225.569 107.801 219.939C105.481 214.309 98.2317 201.741 85.632 209.022" fill="#CCCCCC"/>
<path d="M79.3401 241.454C79.3401 241.454 95.5603 285.809 99.8585 287.132C104.157 288.456 108.463 286.471 110.449 285.147C111.501 284.445 127.993 272.794 143.383 261.933L137.658 248.727C129.962 252.252 124.021 255.027 124.021 255.027L121.127 252.451C121.071 252.403 120.999 252.371 120.927 252.364L120.441 252.308C118.774 252.164 117.107 252.635 115.76 253.631C115.52 253.791 115.281 253.767 115.082 253.368C114.42 252.045 110.122 225.569 107.801 219.939C105.481 214.309 98.2317 201.741 85.632 209.022" stroke="black" stroke-miterlimit="10"/>
<path d="M115.13 254.445C112.61 257.523 109.827 260.378 106.82 262.986" stroke="#263238" stroke-miterlimit="10"/>
<path d="M113.232 256.582C113.232 256.582 107.777 258.48 103.264 259.668" stroke="#263238" stroke-miterlimit="10"/>
<path d="M39.9858 290.769L30.8549 210.705C30.4004 206.677 26.764 203.783 22.7369 204.245C22.6731 204.245 22.6013 204.261 22.5375 204.269C18.5742 204.835 15.7911 208.48 16.2935 212.451L26.2457 290.896L39.9858 290.769Z" fill="#373737"/>
<path d="M83.7739 269.748C82.49 268.448 80.5043 268.161 78.9094 269.046C76.1263 270.577 75.5681 276.837 76.8201 281.287C78.0721 285.737 83.7739 283.233 83.7739 283.233L83.6383 280.314C83.6383 280.314 78.9094 280.864 78.6303 278.368C78.3512 275.872 78.2156 272.666 81.0226 272.666C83.8297 272.666 84.6431 273.36 84.6431 273.36L83.7739 269.748Z" fill="white" stroke="#263238" stroke-miterlimit="10"/>
<path d="M105.393 264.293H83.3113V290.721H105.393V264.293Z" fill="white" stroke="#263238" stroke-miterlimit="10"/>
<path d="M343.129 290.577H0.097168V298.321H343.129V290.577Z" fill="#373737"/>
</svg>
