<svg width="1920" height="288" viewBox="0 0 1920 288" fill="none" xmlns="http://www.w3.org/2000/svg">
<path d="M0 6.10352e-05C0 6.10352e-05 142.131 2.27011 215 48.0001C270.345 82.7324 273.158 136.91 329.5 170C395.078 208.515 444.51 211.062 520.5 208C595.914 204.961 639.32 189.901 706.5 155.5C757.677 129.294 777.849 100.922 826 69.5001C870.507 40.4566 910.355 8.55981e-05 963.5 6.10352e-05C1081.5 6.49694e-06 1012.83 61.3088 1090 69.5001C1150.84 75.9572 1221.88 19.6662 1283 17.0001C1347.75 14.1758 1366.74 38.5035 1431.5 36C1487.89 33.8201 1545.96 10.3538 1602 17.0001C1664.48 24.4108 1699.16 39.2969 1762 36.0001C1825.2 32.6843 1920 6.10352e-05 1920 6.10352e-05V288H0V6.10352e-05Z" fill="black"/>
</svg>
